<svg width="80" height="80" viewBox="0 0 80 80" fill="none" xmlns="http://www.w3.org/2000/svg">
<circle cx="40" cy="40" r="40" fill="white"/>
<g clip-path="url(#clip0_8_190)">
<path d="M65.9804 28.8142C65.9707 27.6294 65.4897 26.6475 64.5169 25.94C63.7856 25.4079 62.9419 25.2805 62.0659 25.2805H43.1837C34.774 25.2805 26.3643 25.2815 17.9556 25.2795C16.9134 25.2795 15.9475 25.4785 15.139 26.2036C14.5054 26.771 14.2317 27.5226 14 28.3036V37.0565C14.0264 37.0751 14.0557 37.082 14.087 37.0751C14.4194 38.6352 15.4039 39.5573 16.9232 39.8993C22.8858 41.2389 28.8514 42.5648 34.818 43.8867C35.1455 43.9592 35.2902 44.067 35.2775 44.4443C35.2442 45.4605 35.2609 46.4796 35.2677 47.4968C35.2755 48.5846 35.6588 48.9677 36.7342 48.9687C38.9163 48.9716 41.0994 48.9716 43.2815 48.9687C44.3227 48.9667 44.7118 48.5787 44.7215 47.5213C44.7303 46.5208 44.7548 45.5183 44.7088 44.5207C44.6883 44.0719 44.8633 43.9573 45.2475 43.872C51.2141 42.553 57.1797 41.2252 63.1423 39.8876C64.8219 39.5103 65.9619 38.1442 65.9804 36.446C66.0088 33.9021 66.0029 31.3581 65.9804 28.8142ZM44.7098 41.1056C44.7421 39.8454 44.3745 39.4995 43.1319 39.4995C41.0172 39.4985 38.9016 39.4985 36.787 39.4995C35.647 39.5005 35.2755 39.8748 35.2667 41.0233C35.2618 41.6387 35.2628 41.6358 34.684 41.5055C29.002 40.2276 23.3199 38.9498 17.6368 37.6739C16.6436 37.4514 16.3571 37.1143 16.3561 36.1079C16.3532 33.8011 16.3532 31.4953 16.3561 29.1885C16.3571 28.0449 16.7345 27.6637 17.8715 27.6637C25.2498 27.6618 32.6271 27.6628 40.0044 27.6628C47.3817 27.6628 54.6583 27.6618 61.9858 27.6647C62.2713 27.6657 62.5675 27.6628 62.8422 27.7294C63.3359 27.848 63.6253 28.2831 63.6292 28.9534C63.6419 31.412 63.6448 33.8717 63.6273 36.3304C63.6224 37.1104 63.2782 37.474 62.4834 37.6523C58.9913 38.4372 55.4991 39.2183 52.007 40.0012C49.7496 40.5069 47.4922 41.0076 45.2377 41.526C44.8369 41.6191 44.6971 41.577 44.7098 41.1056ZM41.9773 46.6208C40.6438 46.5992 39.3093 46.6051 37.9758 46.6178C37.7089 46.6198 37.6317 46.5394 37.6346 46.2748C37.6463 44.9215 37.6444 43.5673 37.6346 42.2139C37.6346 41.9709 37.6727 41.8504 37.9611 41.8533C39.3112 41.868 40.6624 41.8671 42.0125 41.8543C42.2823 41.8514 42.3595 41.9386 42.3537 42.2002C42.339 42.8764 42.3488 43.5535 42.3488 44.2307C42.3488 44.9078 42.3361 45.5507 42.3547 46.2102C42.3625 46.5012 42.3116 46.6257 41.9763 46.6208H41.9773Z" fill="#262626"/>
<path d="M64.8013 43.3663C64.8013 43.2145 64.7954 43.0616 64.7778 42.9097C64.6987 42.2081 64.1649 41.7975 63.4727 41.8994C62.7522 42.0052 62.4422 42.4266 62.4422 43.3262C62.4403 48.2269 62.4413 53.1276 62.4403 58.0292C62.4403 59.2767 62.0844 59.6393 60.8546 59.6393H19.1316C17.9036 59.6393 17.5488 59.2767 17.5488 58.0263C17.5488 53.1766 17.5478 48.3258 17.5497 43.4761C17.5497 43.2047 17.5478 42.9342 17.4696 42.6706C17.3542 42.2825 17.1098 42.0317 16.7148 41.9337C15.7782 41.7024 15.1897 42.2277 15.1887 43.3183C15.1858 48.2866 15.1877 53.2559 15.1868 58.2243C15.1868 58.8397 15.2513 59.4433 15.5319 60.0009C16.2416 61.4081 17.4217 62 18.9566 61.999C25.9614 61.9951 32.9662 61.997 39.9701 61.997C46.9739 61.997 53.9455 61.9961 60.9337 62C61.5839 62 62.2213 61.9441 62.8089 61.6492C64.2353 60.9328 64.8091 59.7285 64.8052 58.1713C64.7954 53.2363 64.8023 48.3013 64.8013 43.3663Z" fill="#262626"/>
<path d="M31.7961 22.9061C32.3739 22.8708 32.805 22.5092 32.8676 21.9438C32.9135 21.5254 32.8832 21.0981 32.8999 20.6748C32.9341 19.8154 33.332 19.3705 34.1776 19.3666C38.0501 19.3509 41.9235 19.3519 45.796 19.3656C46.6475 19.3685 47.0513 19.8056 47.0884 20.6591C47.106 21.0481 47.0777 21.4401 47.107 21.8282C47.1549 22.4798 47.5939 22.8885 48.2284 22.9091C48.8814 22.9287 49.3585 22.52 49.426 21.8527C49.4553 21.5675 49.4309 21.2774 49.4309 20.9893C49.4436 18.3847 48.069 17.002 45.4812 17.001H41.0681C38.7677 17.001 36.4683 16.9971 34.1679 17.0029C32.9644 17.0059 31.9535 17.4429 31.231 18.4297C30.4069 19.5547 30.443 20.8463 30.6337 22.1339C30.7099 22.6474 31.2447 22.9404 31.7961 22.9061Z" fill="#262626"/>
</g>
<defs>
<clipPath id="clip0_8_190">
<rect width="52" height="45" fill="white" transform="translate(14 17)"/>
</clipPath>
</defs>
</svg>
