<svg width="80" height="80" viewBox="0 0 80 80" fill="none" xmlns="http://www.w3.org/2000/svg">
<circle cx="40" cy="40" r="40" fill="white"/>
<g clip-path="url(#clip0_8_191)">
<path d="M64.9062 58.7027C64.7831 57.6735 64.4783 56.6972 63.9752 55.8006C62.4052 53.0073 60.0742 51.3528 56.9176 50.9648C56.8678 50.886 56.7281 50.913 56.7193 50.7863C56.8326 50.7793 56.9488 50.7843 57.0592 50.7634C59.9051 50.2288 61.9577 47.4774 61.7633 44.4606C61.5738 41.5146 59.1372 39.0643 56.262 38.9257C52.4118 38.7412 49.4888 42.1519 50.1658 46.0413C50.5898 48.4816 52.7919 50.5968 55.1122 50.7933C55.0252 50.8482 54.9373 50.903 54.8494 50.9569C54.8435 50.9608 54.8386 50.9648 54.8327 50.9678C52.9218 51.1852 51.2277 51.9272 49.7848 53.2187C49.4262 53.5398 49.2689 53.5667 48.9456 53.1708C47.1069 50.92 44.7612 49.5427 41.9192 49.068C41.5802 49.0112 41.2403 48.9583 40.9012 48.9035C45.4646 48.2014 48.0917 44.1664 47.7918 40.281C47.4958 36.4385 44.4974 33.3419 40.6853 32.961C37.0442 32.597 33.4206 35.142 32.4896 38.7123C31.8751 41.0718 32.1828 43.2958 33.5135 45.3262C34.8343 47.3407 36.7208 48.4886 39.1398 48.8436C39.1496 48.8456 39.1593 48.8476 39.1691 48.8486C39.1593 48.8546 39.1496 48.8596 39.1417 48.8646C39.0489 48.9184 39.0265 48.9404 39.0011 48.9433C35.7351 49.2615 33.0474 50.7035 30.9567 53.2825C30.7145 53.5807 30.5904 53.5558 30.3276 53.3154C28.8572 51.9701 27.129 51.1952 25.1673 50.9678C25.1614 50.9638 25.1546 50.9598 25.1487 50.9569C25.0608 50.902 24.9748 50.8472 24.8878 50.7933C28.1157 50.52 30.563 46.9518 29.8078 43.6189C29.0663 40.3498 25.8863 38.2934 22.7756 39.0723C19.5038 39.8911 17.5977 43.1133 18.4223 46.4322C18.9919 48.7239 21.1461 50.6547 23.2807 50.7863C23.2719 50.913 23.1322 50.886 23.0824 50.9648C19.536 51.4425 17.0692 53.3832 15.6047 56.6942C15.3126 57.3544 15.2696 58.0864 15 58.7516V62.1403C15.1514 62.7277 15.5657 62.9541 16.1196 62.989C16.3463 63.003 16.5739 62.999 16.8025 62.999C32.302 63 47.8015 63 63.3011 63C63.4632 63 63.6264 63.002 63.7886 62.997C64.5418 62.9721 64.8105 62.7596 65 62.0406V58.8513C64.9228 58.8324 64.914 58.7705 64.9062 58.7027ZM50.6699 55.0686C52.7362 53.115 55.1415 52.387 57.8633 53.1748C60.4825 53.9337 62.1815 55.7059 62.8829 58.4225C63.0666 59.1365 63.0422 59.8695 63.0519 60.5995C63.0568 60.9606 62.8136 60.8399 62.6514 60.8399C60.8782 60.8469 59.105 60.8449 57.3328 60.8449C55.5606 60.8449 53.8509 60.8359 52.1109 60.8518C51.8002 60.8548 51.7065 60.7751 51.6947 60.4509C51.6361 58.7925 51.2844 57.2008 50.5576 55.7099C50.4276 55.4446 50.453 55.2731 50.6699 55.0686ZM52.0152 44.8774C52.0308 42.7163 53.7825 40.9282 55.8996 40.9113C58.0216 40.8943 59.8162 42.7143 59.8221 44.8894C59.828 47.0595 58.0391 48.8855 55.9123 48.8795C53.7815 48.8745 51.9986 47.0435 52.0152 44.8774ZM34.1416 40.9033C34.1446 37.6093 36.7902 34.9196 40.0181 34.9296C43.2245 34.9386 45.8486 37.6163 45.8584 40.8893C45.8681 44.1833 43.2333 46.884 40.0064 46.888C36.7794 46.8919 34.1387 44.1963 34.1416 40.9033ZM41.676 51.0386C46.212 51.8674 49.5757 55.7697 49.7603 60.3921C49.776 60.7671 49.6949 60.8558 49.3256 60.8538C46.2013 60.8369 43.076 60.8449 39.9507 60.8449C36.8254 60.8449 33.7665 60.8369 30.6734 60.8538C30.3032 60.8558 30.224 60.7671 30.2406 60.3921C30.4937 54.4294 35.9168 49.9865 41.676 51.0386ZM29.3604 55.1035C29.545 55.283 29.5714 55.4267 29.46 55.659C28.7254 57.1829 28.3531 58.8034 28.3043 60.4968C28.2945 60.8409 28.1499 60.8499 27.893 60.8489C26.1198 60.8409 24.3466 60.8449 22.5734 60.8449C20.8002 60.8449 19.0603 60.8389 17.3027 60.8499C17.0399 60.8519 16.9588 60.794 16.9442 60.5038C16.7282 56.4 19.6376 53.6306 22.6008 53.0432C25.1917 52.5296 27.4494 53.2396 29.3604 55.1035ZM20.1779 44.9084C20.1672 42.7383 21.9521 40.9113 24.0819 40.9113C26.2116 40.9113 27.9526 42.6904 27.9848 44.8585C28.018 47.0186 26.2439 48.8576 24.1063 48.8795C21.9863 48.9025 20.1896 47.0854 20.1779 44.9084Z" fill="#010101"/>
<path d="M32.5971 21.961C33.4793 22.8217 34.3429 23.7013 35.2222 24.5649C35.4098 24.7484 35.4997 24.904 35.443 25.2042C35.1948 26.5395 34.9887 27.8828 34.7787 29.1564C34.7396 30.0479 35.5016 30.5296 36.2666 30.1367C37.353 29.5782 38.4335 29.0058 39.4954 28.4004C39.8325 28.209 40.0826 28.2 40.4187 28.3895C41.4689 28.9828 42.5377 29.5393 43.5997 30.1098C44.0031 30.3272 44.4125 30.377 44.7876 30.0719C45.1393 29.7857 45.2058 29.4007 45.1237 28.9519C44.9029 27.7462 44.7183 26.5335 44.5004 25.3268C44.4389 24.9858 44.5033 24.7494 44.7632 24.5021C45.6317 23.6753 46.467 22.8137 47.3229 21.973C47.6628 21.6389 47.8758 21.2689 47.7117 20.7782C47.5485 20.2866 47.1568 20.134 46.6917 20.0702C45.4999 19.9076 44.3109 19.7211 43.12 19.5566C42.8357 19.5177 42.6667 19.393 42.5406 19.1198C42.0238 17.9968 41.4796 16.8869 40.9521 15.7679C40.7499 15.3391 40.4773 15 39.9702 15C39.4671 14.999 39.1896 15.3211 38.9855 15.7579C38.4599 16.8769 37.902 17.9809 37.393 19.1078C37.2553 19.411 37.0687 19.5197 36.7765 19.5606C35.5856 19.7271 34.3967 19.9096 33.2057 20.0742C32.7554 20.136 32.3783 20.3005 32.2219 20.7633C32.0588 21.244 32.2513 21.6229 32.5971 21.961ZM37.8541 21.4025C38.325 21.3417 38.6181 21.0914 38.8145 20.6695C39.1828 19.8827 39.5619 19.1008 39.9624 18.2611C40.3503 19.0689 40.7284 19.8189 41.0713 20.5848C41.295 21.0834 41.6311 21.3596 42.1752 21.4245C42.991 21.5212 43.8009 21.6638 44.5883 21.7825C44.0334 22.3749 43.5137 22.9882 42.9324 23.5337C42.4654 23.9705 42.355 24.4482 42.4752 25.0526C42.6305 25.8285 42.7438 26.6123 42.8875 27.472C42.0951 27.0461 41.3702 26.6781 40.6658 26.2722C40.1774 25.99 39.7319 26 39.2463 26.2812C38.5439 26.6871 37.819 27.0541 37.0442 27.47C37.1966 26.5385 37.3236 25.6719 37.4839 24.8122C37.5718 24.3365 37.4243 23.9835 37.1048 23.6494C36.5186 23.0351 35.9569 22.3978 35.3922 21.7775C36.1679 21.6578 37.0091 21.5132 37.8541 21.4025Z" fill="#010101"/>
<path d="M17.88 29.3837C18.4095 29.8983 18.9038 30.4558 19.4626 30.9355C19.8095 31.2327 19.829 31.5399 19.7538 31.9368C19.6033 32.7336 19.4783 33.5354 19.365 34.2046C19.3376 35.154 20.0576 35.6317 20.8011 35.2647C21.5592 34.8897 22.3007 34.4778 23.0403 34.066C23.2484 33.9493 23.4115 33.9503 23.6177 34.066C24.3289 34.4629 25.0509 34.8379 25.766 35.2288C26.1568 35.4422 26.5427 35.4771 26.91 35.1979C27.2774 34.9196 27.3555 34.5277 27.2793 34.0859C27.1416 33.2871 27.0224 32.4833 26.8622 31.6885C26.8084 31.4212 26.87 31.2606 27.0556 31.0831C27.6252 30.5396 28.1752 29.9731 28.7389 29.4226C29.0672 29.1025 29.2684 28.7365 29.116 28.2698C28.9587 27.7871 28.5777 27.6056 28.1058 27.5458C27.3643 27.453 26.6277 27.3224 25.8862 27.2326C25.5775 27.1957 25.4065 27.0531 25.2785 26.7679C24.9551 26.0459 24.6025 25.3378 24.2586 24.6257C24.0651 24.2238 23.7662 23.9596 23.308 23.9715C22.8752 23.9815 22.5909 24.2308 22.4043 24.6198C22.0633 25.3338 21.6911 26.0319 21.3785 26.7589C21.2397 27.082 21.0375 27.1957 20.7259 27.2366C19.9853 27.3333 19.2467 27.451 18.5072 27.5517C18.0773 27.6106 17.7129 27.7731 17.5595 28.2149C17.4042 28.6667 17.54 29.0546 17.88 29.3837ZM21.8093 29.0766C22.2841 29.0307 22.5821 28.7754 22.7794 28.3556C22.9475 27.9995 23.1224 27.6465 23.2933 27.2915C23.3344 27.2655 23.3754 27.2386 23.4154 27.2117C23.689 28.7166 24.6103 29.3189 26.0698 29.1983C25.6927 29.8096 25.0421 30.0729 24.8467 30.6952C24.6552 31.3055 25.0235 31.8919 24.9757 32.6169C23.8854 31.6496 22.7921 31.5977 21.6677 32.6528C21.6471 31.8999 21.9988 31.2915 21.8093 30.6902C21.6198 30.0878 20.9984 29.8086 20.6086 29.2711C21.0297 29.2012 21.4176 29.1145 21.8093 29.0766Z" fill="#010101"/>
<path d="M52.6932 30.9655C52.9961 31.2357 53.04 31.512 52.9697 31.879C52.8163 32.6927 52.6864 33.5105 52.5701 34.1867C52.5379 35.146 53.255 35.6327 53.9965 35.2687C54.7419 34.9037 55.4698 34.5018 56.1947 34.0949C56.4301 33.9633 56.6099 33.9443 56.8561 34.0859C57.5478 34.4838 58.26 34.8439 58.9614 35.2248C59.3503 35.4362 59.7352 35.4821 60.1064 35.2039C60.4757 34.9266 60.5607 34.5377 60.4845 34.0959C60.3487 33.2961 60.2276 32.4933 60.0693 31.6975C60.0165 31.4352 60.0625 31.2706 60.252 31.0901C60.8235 30.5466 61.3726 29.9801 61.9373 29.4296C62.2645 29.1105 62.4707 28.7445 62.3232 28.2778C62.1707 27.7961 61.7927 27.6066 61.3188 27.5468C60.5773 27.454 59.8407 27.3264 59.0992 27.2326C58.7973 27.1947 58.6156 27.0681 58.4856 26.7759C58.1789 26.0838 57.8252 25.4116 57.5077 24.7235C57.3055 24.2857 57.0251 23.9675 56.521 23.9705C56.0139 23.9745 55.7433 24.3136 55.5411 24.7424C55.2333 25.3986 54.8904 26.0389 54.611 26.7071C54.4625 27.0621 54.2446 27.2017 53.891 27.2436C53.1495 27.3334 52.4109 27.451 51.6713 27.5568C51.2415 27.6186 50.8878 27.8041 50.751 28.2529C50.6182 28.6917 50.754 29.0616 51.0773 29.3778C51.6176 29.9043 52.1305 30.4638 52.6932 30.9655ZM56.5464 27.1927C56.8961 28.6996 57.7998 29.3269 59.2936 29.2551C58.0929 30.0878 57.665 31.136 58.2473 32.579C57.0778 31.6237 55.9719 31.6266 54.8494 32.6509C54.8689 31.9019 55.1933 31.2995 55.0145 30.6992C54.8328 30.0908 54.2075 29.8126 53.7464 29.1833C55.2929 29.3708 56.1458 28.6418 56.5464 27.1927Z" fill="#010101"/>
<path d="M43.3046 55.9154C43.8302 56.3103 44.3226 56.7411 44.6929 57.2966C44.9479 57.6785 45.1628 58.0894 45.4334 58.4584C45.704 58.8284 46.0821 58.9401 46.5159 58.7656C46.9203 58.604 47.1226 58.2929 47.1392 57.8221C47.1275 57.7523 47.1304 57.6456 47.0913 57.5589C46.4573 56.1128 45.4959 54.945 44.1575 54.1442C43.5469 53.7792 42.821 54.2539 42.7858 54.96C42.7643 55.3898 42.991 55.679 43.3046 55.9154Z" fill="#010101"/>
<path d="M39.9644 54.8572C40.4851 54.8812 40.9716 54.4025 40.9706 53.8659C40.9706 53.3463 40.5222 52.8836 40.0113 52.8756C39.5042 52.8686 39.0441 53.3224 39.0294 53.843C39.0148 54.3586 39.4534 54.8343 39.9644 54.8572Z" fill="#010101"/>
</g>
<defs>
<clipPath id="clip0_8_191">
<rect width="50" height="48" fill="white" transform="translate(15 15)"/>
</clipPath>
</defs>
</svg>
