<svg width="72" height="73" viewBox="0 0 72 73" fill="none" xmlns="http://www.w3.org/2000/svg">
<g clip-path="url(#clip0_21_155)">
<path d="M68.8629 7.34537C66.4342 7.25427 63.9984 7.31322 61.5662 7.32215C61.2111 7.32215 60.8667 7.41504 60.6323 7.73658C60.3891 8.07241 60.3305 8.42789 60.5152 8.8048C60.7442 9.27103 61.1507 9.40679 61.6319 9.40679C63.8031 9.40501 65.9762 9.40679 68.1492 9.40679C69.6831 9.40679 69.9388 9.6676 69.9388 11.2431C69.9388 30.514 69.9388 49.7849 69.937 69.0558C69.937 69.3398 69.9352 69.6256 69.9015 69.9079C69.8323 70.5099 69.4754 70.835 68.8825 70.8921C68.6481 70.9136 68.4102 70.9136 68.1741 70.9136C48.1 70.9136 28.0259 70.9136 7.95187 70.9118C7.62165 70.9118 7.29143 70.8957 6.96299 70.8707C4.54316 70.6885 2.45711 68.7896 2.14819 66.4942C1.80022 63.9112 3.1495 61.5032 5.4273 60.6422C7.83647 59.7312 10.448 60.5868 11.8097 62.7519C12.0601 63.1502 12.2287 63.5986 12.4542 64.0112C12.7241 64.5024 13.1484 64.6972 13.7005 64.6096C14.2242 64.5275 14.5491 64.2131 14.6521 63.6986C14.7125 63.4003 14.7249 63.0877 14.7249 62.7822C14.7284 45.2691 14.732 27.7577 14.7125 10.2446C14.7125 9.589 14.819 9.38536 15.5291 9.38714C28.4716 9.41394 41.414 9.40679 54.3546 9.40501C54.6138 9.40501 54.8801 9.42644 55.1322 9.38C55.6862 9.27818 56.0217 8.93699 56.0164 8.35286C56.011 7.80982 55.7217 7.4597 55.1784 7.37217C54.9014 7.32751 54.6156 7.31679 54.3333 7.31679C41.4388 7.31322 28.5443 7.30786 15.6499 7.33108C14.961 7.33287 14.716 7.1846 14.6095 6.46293C14.1586 3.41903 12.4222 1.39869 9.56035 0.35012C9.17332 0.209 8.76854 0.116111 8.37085 0H6.38777C6.35759 0.0339402 6.33273 0.0911026 6.299 0.0982479C2.22098 0.955684 0.00710147 3.69055 0.00710147 7.88127C0.0053261 20.5463 0.0053261 33.2114 0.00710147 45.8764C0.00710147 46.0908 -0.0053261 46.3069 0.0213044 46.5177C0.0958698 47.0911 0.440291 47.4377 1.00486 47.452C1.56232 47.4663 1.94048 47.159 2.02214 46.5749C2.0612 46.2944 2.06475 46.0068 2.06475 45.7228C2.06653 33.2721 2.06653 20.8214 2.0683 8.36894C2.0683 7.87234 2.08961 7.37217 2.12689 6.87557C2.36834 3.62624 5.75751 1.32009 8.83245 2.31151C11.2239 3.0832 12.6371 5.08567 12.6388 7.77945C12.6442 25.1265 12.6424 42.4717 12.6371 59.8187C12.6371 59.9705 12.7081 60.1438 12.5731 60.2831C9.13249 57.5054 5.7007 57.4447 2.19613 60.2671C2.15352 60.301 2.10914 60.3367 2.06653 60.3725V58.1717C2.06653 56.4836 2.08073 54.7973 2.05943 53.1093C2.04877 52.2018 1.44692 51.6713 0.729676 51.916C0.113623 52.125 0 52.6341 0 53.2307C0.0106522 57.3178 -0.00710147 61.405 0.0106522 65.4903C0.0284059 69.7221 3.24892 72.9893 7.45299 72.9911C27.8342 73.0054 48.2154 73 68.5948 72.9946C70.6827 72.9946 71.9965 71.6638 71.9965 69.5578C72.0018 49.9546 72.0018 30.3515 71.9965 10.7483C71.9965 8.76193 70.83 7.41861 68.8629 7.34537Z" fill="#FAB107"/>
<path d="M63.361 20.95C63.3717 21.7414 63.7782 22.2273 64.4014 22.2237C65.0192 22.2201 65.4187 21.7432 65.4364 20.9393C65.4524 20.1319 65.44 19.3245 65.44 18.5171C65.4364 16.3645 64.4688 15.3981 62.3189 15.3981C48.3858 15.3981 34.4545 15.4178 20.5214 15.3749C18.7123 15.3696 17.3755 16.4021 17.395 18.5135C17.4607 25.5212 17.4198 32.5308 17.4198 39.5403C17.4198 46.5499 17.4198 53.6059 17.4216 60.6386C17.4216 61.0406 17.4003 61.4425 17.5193 61.839C17.8939 63.0823 18.8614 63.72 20.4202 63.72C34.3764 63.7218 48.3325 63.72 62.2887 63.72C64.4724 63.72 65.44 62.7483 65.44 60.5529V30.8302C65.44 30.4979 65.4577 30.1621 65.3405 29.8442C65.1293 29.2797 64.4653 29.0064 63.9416 29.2868C63.4675 29.5405 63.3521 29.9853 63.3539 30.4944C63.3628 32.4415 63.329 34.3904 63.3734 36.3392C63.3894 36.9966 63.2651 37.211 62.5514 37.2038C58.6083 37.1627 54.6635 37.1842 50.7204 37.1842C50.4843 37.1842 50.2464 37.1806 50.012 37.2056C49.4208 37.2681 49.1155 37.6522 49.1137 38.2059C49.1137 38.7597 49.4155 39.1491 50.0067 39.2152C50.2393 39.2402 50.4772 39.2349 50.7133 39.2349C54.7274 39.2367 58.7433 39.242 62.7574 39.2277C63.1781 39.2277 63.377 39.2795 63.3717 39.7904C63.3433 42.3324 63.3433 44.8743 63.3699 47.4162C63.3752 47.895 63.2012 47.9486 62.8018 47.9414C61.5271 47.9182 60.2506 47.9236 58.9759 47.9361C58.1184 47.9432 57.6568 48.3273 57.6621 48.9918C57.6656 49.6527 58.1308 50.0243 58.9918 50.0296C60.2435 50.0368 61.4969 50.0546 62.7467 50.0189C63.235 50.0046 63.3752 50.1225 63.3717 50.6316C63.345 53.9828 63.3592 57.3321 63.3575 60.6833C63.3575 61.5747 63.3131 61.6229 62.4431 61.6229C54.7221 61.6247 46.9992 61.6175 39.2782 61.6372C38.7544 61.639 38.6745 61.4746 38.6763 60.9995C38.6976 57.5536 38.7029 54.1078 38.6728 50.6638C38.6674 50.1082 38.8308 50.0136 39.3385 50.0189C42.3371 50.0439 45.3375 50.0332 48.3361 50.0296C49.2451 50.0296 49.7439 49.642 49.7368 48.9721C49.728 48.3058 49.2326 47.9432 48.3148 47.9325H48.1727C42.2696 47.9325 36.3648 47.9307 30.4617 47.9361C30.1812 47.9361 29.8936 47.9557 29.6237 48.0272C29.1586 48.1522 28.9224 48.5023 28.9171 48.9775C28.9136 49.4527 29.1532 49.801 29.6131 49.9385C29.8545 50.0118 30.1226 50.0261 30.3782 50.0261C32.2921 50.0332 34.2042 50.0368 36.1162 50.0261C36.4464 50.0243 36.6187 50.0564 36.6169 50.4726C36.5991 54.0364 36.6009 57.6019 36.6169 61.1656C36.6169 61.555 36.4891 61.6318 36.1322 61.6318C30.8416 61.6211 25.5528 61.6193 20.2622 61.6318C19.6834 61.6318 19.4562 61.4067 19.458 60.8333C19.4686 57.3893 19.4686 53.9435 19.4544 50.4994C19.4526 50.1154 19.5787 50.0136 19.9409 50.0243C20.7895 50.0457 21.6399 50.0368 22.4903 50.0296C23.362 50.0225 23.8236 49.6652 23.8378 49.0061C23.852 48.3201 23.3744 47.9432 22.4672 47.9343C21.7109 47.9271 20.9528 47.895 20.2001 47.945C19.6319 47.9825 19.4438 47.836 19.4473 47.2215C19.4757 42.6128 19.4757 38.0023 19.4473 33.3936C19.4438 32.7827 19.6302 32.663 20.1983 32.6648C25.0628 32.688 29.9273 32.6791 34.7918 32.6773C35.8659 32.6755 36.1908 32.3557 36.1979 31.2857C36.2068 29.8835 36.2103 28.4812 36.1961 27.0807C36.1872 26.2715 35.7984 25.8106 35.1735 25.8106C34.5504 25.8088 34.1562 26.2876 34.1491 27.0789C34.1402 28.1007 34.1331 29.1225 34.1544 30.1443C34.1633 30.5176 34.0479 30.6301 33.6751 30.6284C29.0929 30.6176 24.5124 30.6176 19.932 30.6284C19.5503 30.6301 19.4544 30.498 19.4544 30.1335C19.4651 26.1661 19.4633 22.1987 19.4597 18.2312C19.458 17.74 19.6479 17.4792 20.1681 17.4792C24.6793 17.4846 29.1887 17.4881 33.7 17.4738C34.0994 17.4738 34.1633 17.6346 34.1544 17.9794C34.1331 18.7153 34.1402 19.4531 34.1491 20.1891C34.1616 20.9608 34.5166 21.3913 35.1345 21.4109C35.7967 21.4323 36.173 21.0126 36.1961 20.1908C36.2121 19.5496 36.2512 18.9029 36.1855 18.2688C36.1145 17.5757 36.3967 17.4631 37.0128 17.4685C40.7446 17.4953 44.4764 17.5006 48.2065 17.4649C48.8918 17.4578 49.1048 17.5882 49.0959 18.3331C49.0551 22.7042 49.0746 27.0771 49.0764 31.4483C49.0782 32.4486 49.4155 32.9309 50.1026 32.9434C50.7932 32.9559 51.1536 32.4576 51.1571 31.484C51.1589 31.2696 51.1571 31.0571 51.1571 30.8427C51.1571 26.5895 51.1589 22.3362 51.1571 18.083C51.1571 17.7507 51.0932 17.4649 51.6312 17.4685C55.2902 17.4953 58.951 17.4864 62.6118 17.4774C63.148 17.4774 63.3823 17.6846 63.3646 18.242C63.3379 19.1441 63.3486 20.0462 63.361 20.95Z" fill="#FAB107"/>
</g>
<defs>
<clipPath id="clip0_21_155">
<rect width="72" height="73" fill="white"/>
</clipPath>
</defs>
</svg>
