<svg width="54" height="54" viewBox="0 0 54 54" fill="none" xmlns="http://www.w3.org/2000/svg">
<circle cx="27" cy="27" r="27" fill="white"/>
<path d="M27 12.3333V41.6666" stroke="#FAB107" stroke-width="2" stroke-linecap="round" stroke-linejoin="round"/>
<path d="M33.6667 17.6667H23.6667C22.429 17.6667 21.242 18.1584 20.3668 19.0335C19.4917 19.9087 19 21.0957 19 22.3334C19 23.571 19.4917 24.758 20.3668 25.6332C21.242 26.5084 22.429 27 23.6667 27H30.3333C31.571 27 32.758 27.4917 33.6332 28.3669C34.5083 29.242 35 30.429 35 31.6667C35 32.9044 34.5083 34.0914 33.6332 34.9665C32.758 35.8417 31.571 36.3334 30.3333 36.3334H19" stroke="#FAB107" stroke-width="2" stroke-linecap="round" stroke-linejoin="round"/>
</svg>
