<svg width="59" height="675" viewBox="0 0 59 675" fill="none" xmlns="http://www.w3.org/2000/svg">
<circle cx="29.5" cy="29.5" r="29.5" fill="#FAB107"/>
<path d="M13.4869 27C13.4869 20.152 15.8229 15.16 22.4789 15.16C29.1349 15.16 31.4709 20.152 31.4709 27C31.4709 33.944 29.1349 38.904 22.4789 38.904C15.8229 38.904 13.4869 33.944 13.4869 27ZM26.0949 27C26.0949 23.416 25.7109 20.28 22.4789 20.28C19.2469 20.28 18.8629 23.416 18.8629 27C18.8629 30.712 19.2469 33.784 22.4789 33.784C25.7109 33.784 26.0949 30.712 26.0949 27ZM36.9539 39V20.728H33.7859V15.64H42.6499V39H36.9539Z" fill="white"/>
<circle cx="29.5" cy="337.5" r="29.5" fill="#FAB107"/>
<path d="M10.8619 335C10.8619 328.152 13.1979 323.16 19.8539 323.16C26.5099 323.16 28.8459 328.152 28.8459 335C28.8459 341.944 26.5099 346.904 19.8539 346.904C13.1979 346.904 10.8619 341.944 10.8619 335ZM23.4699 335C23.4699 331.416 23.0859 328.28 19.8539 328.28C16.6219 328.28 16.2379 331.416 16.2379 335C16.2379 338.712 16.6219 341.784 19.8539 341.784C23.0859 341.784 23.4699 338.712 23.4699 335ZM31.5449 346.68V342.616C36.5369 338.488 41.7849 334.456 41.7849 330.52C41.7849 328.824 41.0169 327.736 39.3529 327.736C37.7209 327.736 36.7609 329.016 36.7609 331.224H31.4809C31.6409 325.56 35.3209 323.128 39.5769 323.128C44.8889 323.128 47.2569 326.232 47.2569 330.168C47.2569 335.288 42.6809 339.384 38.9689 342.232H47.6089V346.68H31.5449Z" fill="white"/>
<circle cx="29.5" cy="645.5" r="29.5" fill="#FAB107"/>
<path d="M11.815 643C11.815 636.152 14.151 631.16 20.807 631.16C27.463 631.16 29.799 636.152 29.799 643C29.799 649.944 27.463 654.904 20.807 654.904C14.151 654.904 11.815 649.944 11.815 643ZM24.423 643C24.423 639.416 24.039 636.28 20.807 636.28C17.575 636.28 17.191 639.416 17.191 643C17.191 646.712 17.575 649.784 20.807 649.784C24.039 649.784 24.423 646.712 24.423 643ZM38.226 638.232H32.882C33.106 633.592 36.082 631.096 40.85 631.096C45.778 631.096 48.434 633.944 48.434 637.432C48.434 640.472 46.546 642.168 44.914 642.68V642.808C47.25 643.576 48.85 645.368 48.85 648.44C48.85 652.408 46.034 655.192 41.138 655.192C36.274 655.192 32.754 652.856 32.594 647.608H37.906C37.938 649.432 38.898 650.648 40.946 650.648C42.642 650.648 43.57 649.56 43.57 648.024C43.57 645.944 42.322 645.112 39.474 645.112H38.45V640.664H39.474C41.362 640.664 43.122 640.248 43.122 638.104C43.122 636.536 42.226 635.672 40.722 635.672C38.962 635.672 38.322 636.952 38.226 638.232Z" fill="white"/>
</svg>
