<svg width="26" height="19" viewBox="0 0 26 19" fill="none" xmlns="http://www.w3.org/2000/svg">
<g clip-path="url(#clip0_106_7213)">
<path d="M25.4564 3.31032C25.158 2.20419 24.276 1.33323 23.1577 1.0371C21.1309 0.5 13 0.5 13 0.5C13 0.5 4.86909 0.5 2.84227 1.0371C1.72398 1.33323 0.842045 2.20419 0.543636 3.31032C0 5.31645 0 9.5 0 9.5C0 9.5 0 13.6835 0.543636 15.6897C0.842045 16.7958 1.72398 17.6668 2.84227 17.9629C4.86909 18.5 13 18.5 13 18.5C13 18.5 21.1309 18.5 23.1577 17.9629C24.276 17.6668 25.158 16.7958 25.4564 15.6897C26 13.6835 26 9.5 26 9.5C26 9.5 26 5.31645 25.4564 3.31032ZM10.3409 13.2989V5.70113L17.1364 9.5L10.3409 13.2989Z" fill="white"/>
</g>
<defs>
<clipPath id="clip0_106_7213">
<rect width="26" height="18" fill="white" transform="translate(0 0.5)"/>
</clipPath>
</defs>
</svg>
