<svg width="264" height="40" viewBox="0 0 264 40" fill="none" xmlns="http://www.w3.org/2000/svg">
<g clip-path="url(#clip0_1_544)">
<path d="M43.7105 0L35.506 12.1146L30.1699 20L25.6511 26.6667L21.1362 33.3333L16.6174 40H0L4.51487 33.3333L9.02974 26.6667L13.5446 20L27.0853 0H43.7105Z" fill="#FAB107"/>
<mask id="mask0_1_544" style="mask-type:luminance" maskUnits="userSpaceOnUse" x="35" y="0" width="19" height="27">
<path d="M53.4592 14.0768L49.4473 20L45.1486 26.3539L40.8459 20L35.5059 12.1146L43.7104 0H43.9226L53.4592 14.0768Z" fill="white"/>
</mask>
<g mask="url(#mask0_1_544)">
<path d="M44.905 0L45.2783 0.520008L35.5059 8.06419V0H44.905Z" fill="#E0721B"/>
<path d="M45.2783 0.52002L45.4511 0.755648L35.5059 8.43389V8.0642L45.2783 0.52002Z" fill="#E0721B"/>
<path d="M45.4511 0.755615L45.6201 0.991244L35.5059 8.79949V8.43386L45.4511 0.755615Z" fill="#E1741A"/>
<path d="M45.6201 0.991211L45.7891 1.22684L35.5059 9.16915V8.79946L45.6201 0.991211Z" fill="#E2761A"/>
<path d="M45.7891 1.22693L45.962 1.46662L35.5059 9.53487V9.16924L45.7891 1.22693Z" fill="#E27819"/>
<path d="M45.962 1.46655L46.1309 1.70218L35.5059 9.9045V9.5348L45.962 1.46655Z" fill="#E37A19"/>
<path d="M46.1309 1.70227L46.3038 1.9379L35.5059 10.2702V9.90459L46.1309 1.70227Z" fill="#E47C18"/>
<path d="M46.3038 1.93787L46.4728 2.17349L35.5059 10.6399V10.2702L46.3038 1.93787Z" fill="#E57E17"/>
<path d="M46.4728 2.17346L46.6418 2.40909L35.5059 11.0055V10.6398L46.4728 2.17346Z" fill="#E67F17"/>
<path d="M46.6418 2.40906L46.8146 2.64469L35.5059 11.3751V11.0054L46.6418 2.40906Z" fill="#E68116"/>
<path d="M46.8146 2.64478L46.9836 2.8804L35.5059 11.7409V11.3752L46.8146 2.64478Z" fill="#E78316"/>
<path d="M46.9836 2.88037L47.1565 3.116L35.5059 12.1105V11.7408L46.9836 2.88037Z" fill="#E88515"/>
<path d="M47.1565 3.11597L47.3255 3.3516L35.5059 12.4761V12.1105L47.1565 3.11597Z" fill="#E88615"/>
<path d="M47.3255 3.35156L47.4944 3.59125L35.5059 12.8458V12.4761L47.3255 3.35156Z" fill="#E98814"/>
<path d="M47.4944 3.59131L47.6673 3.82694L35.5059 13.2115V12.8458L47.4944 3.59131Z" fill="#EA8A13"/>
<path d="M47.6673 3.8269L47.8363 4.06253L35.5059 13.5811V13.2114L47.6673 3.8269Z" fill="#EA8B13"/>
<path d="M47.8363 4.06262L48.0052 4.29825L35.5059 13.9468V13.5812L47.8363 4.06262Z" fill="#EB8D12"/>
<path d="M48.0052 4.29822L48.1781 4.53385L35.5059 14.3165V13.9468L48.0052 4.29822Z" fill="#EC8E12"/>
<path d="M48.1781 4.53381L48.3471 4.76944L35.6591 14.5643L35.5059 14.353V14.3165L48.1781 4.53381Z" fill="#EC9012"/>
<path d="M48.3454 4.76983L35.6572 14.5657L35.8289 14.8033L48.5171 5.00745L48.3454 4.76983Z" fill="#ED9111"/>
<path d="M48.5151 5.00444L35.8269 14.8003L35.9985 15.0379L48.6867 5.24207L48.5151 5.00444Z" fill="#ED9311"/>
<path d="M48.6877 5.24065L35.9995 15.0365L36.1711 15.2741L48.8593 5.47828L48.6877 5.24065Z" fill="#EE9410"/>
<path d="M48.8574 5.47527L36.1692 15.2711L36.3408 15.5087L49.029 5.7129L48.8574 5.47527Z" fill="#EF9510"/>
<path d="M49.0268 5.71392L36.3386 15.5098L36.5103 15.7474L49.1985 5.95154L49.0268 5.71392Z" fill="#EF970F"/>
<path d="M49.1958 5.9461L36.5076 15.7419L36.6792 15.9796L49.3674 6.18372L49.1958 5.9461Z" fill="#F0980F"/>
<path d="M49.3652 6.18474L36.677 15.9806L36.8486 16.2182L49.5368 6.42237L49.3652 6.18474Z" fill="#F0990F"/>
<path d="M49.5381 6.41692L36.8499 16.2128L37.0215 16.4504L49.7097 6.65455L49.5381 6.41692Z" fill="#F19B0E"/>
<path d="M49.7075 6.65557L37.0193 16.4514L37.1909 16.689L49.8791 6.89319L49.7075 6.65557Z" fill="#F19C0E"/>
<path d="M49.8796 6.89336L37.1914 16.6892L37.363 16.9268L50.0512 7.13099L49.8796 6.89336Z" fill="#F29D0D"/>
<path d="M50.0522 7.12957L37.364 16.9254L37.5356 17.163L50.2238 7.36719L50.0522 7.12957Z" fill="#F29E0D"/>
<path d="M50.2219 7.36419L37.5337 17.16L37.7053 17.3977L50.3935 7.60181L50.2219 7.36419Z" fill="#F39F0D"/>
<path d="M50.3906 7.60039L37.7024 17.3962L37.874 17.6339L50.5622 7.83802L50.3906 7.60039Z" fill="#F3A00C"/>
<path d="M50.5603 7.83501L37.8721 17.6309L38.0437 17.8685L50.7319 8.07264L50.5603 7.83501Z" fill="#F3A10C"/>
<path d="M50.7297 8.07366L38.0415 17.8695L38.2131 18.1071L50.9013 8.31128L50.7297 8.07366Z" fill="#F4A20C"/>
<path d="M50.9026 8.30584L38.2144 18.1017L38.386 18.3393L51.0742 8.54346L50.9026 8.30584Z" fill="#F4A30B"/>
<path d="M51.072 8.54448L38.3838 18.3403L38.5554 18.578L51.2436 8.78211L51.072 8.54448Z" fill="#F5A40B"/>
<path d="M51.2441 8.78228L38.5559 18.5781L38.7275 18.8158L51.4157 9.0199L51.2441 8.78228Z" fill="#F5A50B"/>
<path d="M51.4167 9.0186L38.7285 18.8145L38.9001 19.0521L51.5884 9.25623L51.4167 9.0186Z" fill="#F5A60B"/>
<path d="M51.5825 9.2531L38.8943 19.049L39.0659 19.2866L51.7541 9.49073L51.5825 9.2531Z" fill="#F6A70A"/>
<path d="M51.7551 9.48931L39.0669 19.2852L39.2385 19.5228L51.9267 9.72693L51.7551 9.48931Z" fill="#F6A80A"/>
<path d="M51.9248 9.72393L39.2366 19.5198L39.4082 19.7574L52.0964 9.96155L51.9248 9.72393Z" fill="#F6A80A"/>
<path d="M52.0942 9.96257L39.406 19.7584L39.5776 19.996L52.2658 10.2002L52.0942 9.96257Z" fill="#F7A90A"/>
<path d="M52.2671 10.1948L39.5789 19.9906L39.7505 20.2282L52.4387 10.4324L52.2671 10.1948Z" fill="#F7AA09"/>
<path d="M52.4367 10.4334L39.7485 20.2292L39.9202 20.4669L52.6084 10.671L52.4367 10.4334Z" fill="#F7AA09"/>
<path d="M52.6054 10.6656L39.9172 20.4614L40.0889 20.6991L52.7771 10.9032L52.6054 10.6656Z" fill="#F8AB09"/>
<path d="M52.7773 10.9075L40.0891 20.7034L40.2607 20.941L52.9489 11.1451L52.7773 10.9075Z" fill="#F8AC09"/>
<path d="M52.947 11.1421L40.2588 20.938L40.4304 21.1756L53.1186 11.3798L52.947 11.1421Z" fill="#F8AC09"/>
<path d="M53.1196 11.3783L40.4314 21.1742L40.603 21.4118L53.2912 11.616L53.1196 11.3783Z" fill="#F8AD08"/>
<path d="M53.2942 11.6149L53.4593 11.8464V11.8546L40.7713 21.6494L40.6023 21.4138L53.2942 11.6149Z" fill="#F8AD08"/>
<path d="M53.4592 12.2243L40.9441 21.8851L40.7712 21.6495L53.4592 11.8546V12.2243Z" fill="#F9AE08"/>
<path d="M53.4592 12.5899L41.1131 22.1206L40.9441 21.885L53.4592 12.2242V12.5899Z" fill="#F9AE08"/>
<path d="M53.4592 12.9595L41.282 22.3562L41.113 22.1206L53.4592 12.5898V12.9595Z" fill="#F9AF08"/>
<path d="M53.4592 13.3252L41.4549 22.5919L41.282 22.3563L53.4592 12.9596V13.3252Z" fill="#F9AF08"/>
<path d="M53.4594 13.6949L41.624 22.8275L41.4551 22.5919L53.4594 13.3252V13.6949Z" fill="#F9AF08"/>
<path d="M53.4593 14.0606L41.7969 23.0673L41.624 22.8276L53.4593 13.6949V14.0606Z" fill="#F9B007"/>
<path d="M53.4593 14.4302L41.9658 23.3029L41.7969 23.0672L53.4593 14.0605V14.4302Z" fill="#FAB007"/>
<path d="M53.4593 14.7958L42.1348 23.5384L41.9658 23.3028L53.4593 14.4302V14.7958Z" fill="#FAB007"/>
<path d="M53.4593 15.1656L42.3077 23.7742L42.1348 23.5385L53.4593 14.7959V15.1656Z" fill="#FAB007"/>
<path d="M53.4592 15.5312L42.4766 24.0097L42.3076 23.7741L53.4592 15.1655V15.5312Z" fill="#FAB107"/>
<path d="M53.4592 15.9008L42.6495 24.2453L42.4766 24.0097L53.4592 15.5311V15.9008Z" fill="#FAB107"/>
<path d="M53.4592 16.2706L42.8184 24.481L42.6494 24.2454L53.4592 15.9009V16.2706Z" fill="#FAB107"/>
<path d="M53.4591 16.6361L42.9873 24.7166L42.8184 24.4809L53.4591 16.2705V16.6361Z" fill="#FAB107"/>
<path d="M53.4591 17.0059L43.1602 24.9523L42.9873 24.7167L53.4591 16.6362V17.0059Z" fill="#FAB107"/>
<path d="M53.4593 17.3715L43.3294 25.1919L43.1604 24.9522L53.4593 17.0059V17.3715Z" fill="#FAB107"/>
<path d="M44.1702 26.3539L43.3293 25.192L53.4593 17.3716V26.3539H44.1702Z" fill="#FAB107"/>
</g>
<path d="M102.408 40H37.5767L42.0915 33.3293C45.1014 28.8849 48.1114 24.4404 51.1213 19.996L55.1332 14.0768L59.0193 8.34048L61.6874 4.40792L64.6737 -0.00402832H81.2951L78.3048 4.40792L69.9941 16.6769L67.7465 19.996L63.4438 26.3498L63.2316 26.6667H76.7605L72.2457 19.996H88.8631L93.3858 26.6667L97.8967 33.3334L102.412 40.0041L102.408 40Z" fill="#FAB107"/>
<path opacity="0.94" d="M110.785 1.40161H114.373L125.835 15.9781V1.40161H130.31V24.026H126.695L115.233 9.44955V24.026H110.789V1.40161H110.785Z" fill="#FAB107"/>
<path opacity="0.94" d="M137.312 17.3716C136.711 15.9334 136.409 14.3815 136.409 12.7118C136.409 11.0421 136.711 9.49018 137.312 8.05204C137.914 6.61389 138.758 5.36262 139.839 4.29823C140.924 3.23384 142.189 2.39695 143.639 1.79569C145.089 1.19443 146.66 0.893799 148.358 0.893799C150.382 0.893799 152.225 1.31224 153.891 2.14507C155.557 2.97789 156.92 4.10322 157.981 5.52106L154.7 8.56392C154.087 7.50765 153.25 6.67483 152.185 6.06138C151.12 5.44793 149.906 5.14324 148.539 5.14324C147.171 5.14324 145.871 5.47231 144.77 6.12638C143.666 6.78045 142.794 7.67828 142.15 8.81986C141.505 9.96144 141.183 11.2615 141.183 12.7159C141.183 14.1703 141.501 15.4743 142.134 16.6119C142.766 17.7534 143.623 18.6513 144.708 19.3053C145.792 19.9594 146.987 20.2885 148.295 20.2885C149.949 20.2885 151.384 19.8132 152.602 18.8625C153.816 17.9119 154.629 16.6647 155.038 15.125H147.926V11.5458H159.572V12.7809C159.572 14.4059 159.29 15.9334 158.728 17.3594C158.166 18.7853 157.368 20.0366 156.339 21.1132C155.305 22.1898 154.095 23.0307 152.708 23.632C151.317 24.2332 149.796 24.5339 148.142 24.5339C146.488 24.5339 144.979 24.2332 143.56 23.632C142.138 23.0307 140.892 22.1938 139.819 21.1294C138.747 20.065 137.91 18.8097 137.305 17.3756L137.312 17.3716Z" fill="#FAB107"/>
<path opacity="0.94" d="M165.663 8.05606C166.264 6.61792 167.105 5.36665 168.178 4.30226C169.251 3.23786 170.508 2.40098 171.946 1.79972C173.388 1.19846 174.956 0.897827 176.65 0.897827C178.654 0.897827 180.477 1.31627 182.119 2.1491C183.766 2.98192 185.117 4.09913 186.178 5.49259L182.897 8.53545C182.304 7.49949 181.475 6.67479 180.414 6.06541C179.353 5.45196 178.155 5.14727 176.826 5.14727C175.498 5.14727 174.19 5.47634 173.086 6.13041C171.982 6.78448 171.113 7.68231 170.481 8.82389C169.848 9.96547 169.53 11.2655 169.53 12.7199C169.53 14.1743 169.848 15.4784 170.481 16.6159C171.113 17.7575 171.985 18.6553 173.101 19.3094C174.213 19.9634 175.467 20.2925 176.854 20.2925C178.241 20.2925 179.373 19.9797 180.426 19.3581C181.479 18.7365 182.312 17.9078 182.925 16.8718L186.233 19.8822C185.173 21.296 183.805 22.4294 182.143 23.2744C180.477 24.1194 178.642 24.5419 176.642 24.5419C174.944 24.5419 173.376 24.2413 171.938 23.6401C170.5 23.0388 169.243 22.2019 168.17 21.1375C167.097 20.0731 166.26 18.8178 165.655 17.3837C165.054 15.9456 164.751 14.3937 164.751 12.7239C164.751 11.0542 165.054 9.50234 165.655 8.06419L165.663 8.05606Z" fill="white"/>
<path opacity="0.94" d="M191.35 8.05606C191.951 6.61792 192.796 5.36665 193.876 4.30226C194.961 3.23786 196.222 2.40098 197.66 1.79972C199.102 1.19846 200.658 0.897827 202.332 0.897827C204.006 0.897827 205.598 1.19846 207.036 1.79972C208.478 2.40098 209.739 3.23786 210.82 4.30226C211.9 5.37071 212.745 6.62198 213.346 8.05606C213.947 9.49421 214.25 11.0461 214.25 12.7158C214.25 14.3855 213.947 15.9374 213.346 17.3756C212.745 18.8137 211.9 20.065 210.82 21.1294C209.735 22.1978 208.474 23.0307 207.036 23.6319C205.598 24.2332 204.026 24.5338 202.332 24.5338C200.639 24.5338 199.098 24.2332 197.66 23.6319C196.222 23.0307 194.957 22.1938 193.876 21.1294C192.792 20.065 191.951 18.8097 191.35 17.3756C190.748 15.9374 190.446 14.3855 190.446 12.7158C190.446 11.0461 190.748 9.49421 191.35 8.05606ZM196.179 16.6443C196.811 17.7859 197.664 18.6797 198.737 19.3216C199.81 19.9675 201.008 20.2884 202.34 20.2884C203.672 20.2884 204.898 19.9675 205.971 19.3216C207.044 18.6756 207.896 17.7859 208.529 16.6443C209.161 15.5027 209.48 14.1946 209.48 12.7158C209.48 11.2371 209.161 9.9289 208.529 8.78732C207.896 7.64574 207.044 6.75604 205.971 6.1101C204.898 5.46415 203.688 5.14321 202.34 5.14321C200.992 5.14321 199.813 5.46415 198.737 6.1101C197.664 6.75604 196.811 7.64574 196.179 8.78732C195.546 9.9289 195.228 11.2371 195.228 12.7158C195.228 14.1946 195.546 15.5027 196.179 16.6443Z" fill="white"/>
<path opacity="0.94" d="M220.356 1.40161H223.944L235.406 15.9781V1.40161H239.881V24.026H236.266L224.804 9.44955V24.026H220.36V1.40161H220.356Z" fill="white"/>
<path opacity="0.94" d="M261.548 20.9506C260.794 22.0922 259.764 22.9738 258.467 23.5954C257.171 24.2169 255.705 24.5298 254.071 24.5298C252.271 24.5298 250.617 24.1844 249.104 23.4979C247.591 22.8113 246.334 21.8119 245.335 20.5038L248.644 17.3675C249.174 18.3181 249.894 19.0778 250.805 19.6506C251.713 20.2194 252.762 20.5078 253.945 20.5078C255.128 20.5078 256.106 20.2275 256.872 19.6669C257.638 19.1062 258.02 18.3628 258.02 17.4325C258.02 16.7337 257.882 16.2056 257.607 15.8481C257.332 15.4906 257.006 15.2306 256.625 15.0721C256.247 14.9137 255.906 14.8121 255.599 14.7715C255.151 14.6659 254.664 14.5765 254.141 14.5034C253.619 14.4302 253.104 14.349 252.593 14.2677C252.389 14.2474 252.051 14.1783 251.583 14.0605C251.112 13.9427 250.593 13.7558 250.019 13.4918C249.446 13.2277 248.892 12.8621 248.349 12.3989C247.807 11.9358 247.363 11.3386 247.017 10.6074C246.671 9.88016 246.495 8.98639 246.495 7.93013C246.495 6.55698 246.84 5.34227 247.536 4.28601C248.231 3.22974 249.182 2.40098 250.385 1.79972C251.591 1.19846 252.958 0.897827 254.491 0.897827C256.106 0.897827 257.579 1.21877 258.919 1.86472C260.259 2.51066 261.367 3.39224 262.244 4.50945L259.147 7.42637C258.699 6.58135 258.071 5.92728 257.261 5.46009C256.452 4.99695 255.572 4.76133 254.609 4.76133C253.568 4.76133 252.719 5.02133 252.066 5.53727C251.41 6.05322 251.084 6.73573 251.084 7.58074C251.084 8.1495 251.222 8.59639 251.497 8.91326C251.772 9.23014 252.106 9.45765 252.491 9.59578C252.88 9.7339 253.218 9.8314 253.501 9.89641C253.949 9.96141 254.452 10.0345 255.002 10.1198C255.552 10.2052 256.055 10.2905 256.503 10.3717C256.687 10.4124 257.014 10.4895 257.485 10.5952C257.957 10.7008 258.479 10.8917 259.065 11.1639C259.646 11.4402 260.212 11.818 260.766 12.3055C261.316 12.793 261.772 13.4146 262.13 14.1743C262.487 14.934 262.668 15.8765 262.668 16.9937C262.668 18.4928 262.291 19.8131 261.532 20.9547L261.548 20.9506Z" fill="white"/>
<path opacity="0.7" d="M109.677 35.6977C109.677 33.5323 111.28 31.9683 113.438 31.9683C114.581 31.9683 115.563 32.3948 116.216 33.183L115.375 34.0036C114.864 33.4348 114.231 33.1545 113.501 33.1545C112.047 33.1545 110.994 34.2108 110.994 35.7058C110.994 37.2008 112.047 38.2571 113.501 38.2571C114.231 38.2571 114.864 37.9768 115.375 37.3958L116.216 38.2246C115.563 39.0127 114.581 39.4393 113.43 39.4393C111.284 39.4393 109.681 37.8752 109.681 35.7099L109.677 35.6977Z" fill="white"/>
<path opacity="0.7" d="M116.817 35.6977C116.817 33.5527 118.42 31.9683 120.597 31.9683C122.774 31.9683 124.377 33.5445 124.377 35.6977C124.377 37.8509 122.774 39.4271 120.597 39.4271C118.42 39.4271 116.817 37.8427 116.817 35.6977ZM123.061 35.6977C123.061 34.2149 122.008 33.1464 120.593 33.1464C119.178 33.1464 118.125 34.2149 118.125 35.6977C118.125 37.1805 119.178 38.249 120.593 38.249C122.008 38.249 123.061 37.1805 123.061 35.6977Z" fill="white"/>
<path opacity="0.7" d="M131.996 32.0698V39.3256H130.923L127.053 34.4139V39.3256H125.76V32.0698H126.833L130.703 36.9815V32.0698H131.996Z" fill="white"/>
<path opacity="0.7" d="M133.289 38.5578L133.741 37.5096C134.303 37.9768 135.195 38.3059 136.055 38.3059C137.148 38.3059 137.607 37.8996 137.607 37.3634C137.607 35.7993 133.438 36.8231 133.438 34.1296C133.438 32.9596 134.342 31.9642 136.264 31.9642C137.105 31.9642 137.989 32.1917 138.602 32.6061L138.189 33.6543C137.556 33.2724 136.865 33.0855 136.256 33.0855C135.175 33.0855 134.731 33.5202 134.731 34.0686C134.731 35.6124 138.892 34.609 138.892 37.2699C138.892 38.4318 137.981 39.4272 136.055 39.4272C134.963 39.4272 133.871 39.0737 133.289 38.5578Z" fill="white"/>
<path opacity="0.7" d="M141.513 33.2074H139.187V32.0658H145.144V33.2074H142.818V39.3215H141.513V33.2074Z" fill="white"/>
<path opacity="0.7" d="M150.716 39.3257L149.282 37.2009C149.191 37.2131 149.101 37.2131 149.01 37.2131H147.427V39.3297H146.122V32.074H149.01C150.853 32.074 151.997 33.049 151.997 34.6537C151.997 35.7506 151.455 36.559 150.504 36.945L152.119 39.3297H150.716V39.3257ZM148.951 33.2115H147.427V36.104H148.951C150.095 36.104 150.684 35.5637 150.684 34.6537C150.684 33.7437 150.091 33.2115 148.951 33.2115Z" fill="white"/>
<path opacity="0.7" d="M153.396 36.1609V32.0658H154.7V36.108C154.7 37.599 155.353 38.245 156.484 38.245C157.616 38.245 158.26 37.6031 158.26 36.108V32.0658H159.545V36.1609C159.545 38.2775 158.394 39.4272 156.476 39.4272C154.559 39.4272 153.4 38.2775 153.4 36.1609H153.396Z" fill="white"/>
<path opacity="0.7" d="M160.865 35.6977C160.865 33.5323 162.469 31.9683 164.626 31.9683C165.769 31.9683 166.752 32.3948 167.404 33.183L166.563 34.0036C166.052 33.4348 165.42 33.1545 164.689 33.1545C163.235 33.1545 162.182 34.2108 162.182 35.7058C162.182 37.2008 163.235 38.2571 164.689 38.2571C165.42 38.2571 166.052 37.9768 166.563 37.3958L167.404 38.2246C166.752 39.0127 165.769 39.4393 164.618 39.4393C162.473 39.4393 160.869 37.8752 160.869 35.7099L160.865 35.6977Z" fill="white"/>
<path opacity="0.7" d="M169.997 33.2074H167.671V32.0658H173.624V33.2074H171.298V39.3215H169.993V33.2074H169.997Z" fill="white"/>
<path opacity="0.7" d="M174.61 32.0698H175.915V39.3256H174.61V32.0698Z" fill="white"/>
<path opacity="0.7" d="M177.31 35.6977C177.31 33.5527 178.913 31.9683 181.09 31.9683C183.267 31.9683 184.87 33.5445 184.87 35.6977C184.87 37.8509 183.267 39.4271 181.09 39.4271C178.913 39.4271 177.31 37.8427 177.31 35.6977ZM183.554 35.6977C183.554 34.2149 182.501 33.1464 181.086 33.1464C179.671 33.1464 178.618 34.2149 178.618 35.6977C178.618 37.1805 179.671 38.249 181.086 38.249C182.501 38.249 183.554 37.1805 183.554 35.6977Z" fill="white"/>
<path opacity="0.7" d="M192.489 32.0698V39.3256H191.416L187.546 34.4139V39.3256H186.253V32.0698H187.326L191.196 36.9815V32.0698H192.489Z" fill="white"/>
<path opacity="0.7" d="M197.142 32.0698H198.446V39.3256H197.142V32.0698Z" fill="white"/>
<path opacity="0.7" d="M206.576 32.0698V39.3256H205.503L201.633 34.4139V39.3256H200.34V32.0698H201.413L205.283 36.9815V32.0698H206.576Z" fill="white"/>
<path opacity="0.7" d="M214.828 32.0698L211.771 39.3256H210.486L207.417 32.0698H208.832L211.166 37.668L213.523 32.0698H214.828Z" fill="white"/>
<path opacity="0.7" d="M220.836 38.1921V39.3215H215.574V32.0658H220.698V33.1952H216.879V35.0802H220.266V36.1893H216.879V38.1881H220.84L220.836 38.1921Z" fill="white"/>
<path opacity="0.7" d="M221.696 38.5578L222.148 37.5096C222.71 37.9768 223.602 38.3059 224.463 38.3059C225.555 38.3059 226.015 37.8996 226.015 37.3634C226.015 35.7993 221.846 36.8231 221.846 34.1296C221.846 32.9596 222.749 31.9642 224.671 31.9642C225.512 31.9642 226.396 32.1917 227.009 32.6061L226.596 33.6543C225.964 33.2724 225.272 33.0855 224.663 33.0855C223.582 33.0855 223.138 33.5202 223.138 34.0686C223.138 35.6124 227.3 34.609 227.3 37.2699C227.3 38.4318 226.388 39.4272 224.463 39.4272C223.37 39.4272 222.278 39.0737 221.696 38.5578Z" fill="white"/>
<path opacity="0.7" d="M229.92 33.2074H227.594V32.0658H233.551V33.2074H231.225V39.3215H229.92V33.2074Z" fill="white"/>
<path opacity="0.7" d="M240.978 39.3256L240.966 34.5155L238.66 38.4968H238.078L235.771 34.5805V39.3256H234.53V32.0698H235.603L238.388 36.8799L241.123 32.0698H242.196L242.208 39.3256H240.974H240.978Z" fill="white"/>
<path opacity="0.7" d="M249.371 38.1921V39.3215H244.11V32.0658H249.234V33.1952H245.414V35.0802H248.801V36.1893H245.414V38.1881H249.375L249.371 38.1921Z" fill="white"/>
<path opacity="0.7" d="M257.061 32.0698V39.3256H255.988L252.118 34.4139V39.3256H250.825V32.0698H251.898L255.768 36.9815V32.0698H257.061Z" fill="white"/>
<path opacity="0.7" d="M260.369 33.2074H258.043V32.0658H263.996V33.2074H261.67V39.3215H260.365V33.2074H260.369Z" fill="white"/>
</g>
<defs>
<clipPath id="clip0_1_544">
<rect width="264" height="40" fill="white"/>
</clipPath>
</defs>
</svg>
