<svg width="72" height="72" viewBox="0 0 72 72" fill="none" xmlns="http://www.w3.org/2000/svg">
<g clip-path="url(#clip0_21_131)">
<path d="M71.9648 62.149C71.8414 57.7717 70.0022 54.2212 66.572 51.5011C65.6471 50.7677 64.6076 50.216 63.5188 49.703C68.0378 45.9198 67.696 40.0423 64.4931 36.7175C61.2338 33.3345 55.8957 33.16 52.3827 36.2539C49.1657 39.0868 47.795 45.4121 52.8725 49.7241C52.0374 50.1102 51.2287 50.5209 50.4782 51.0322C49.7066 51.5575 48.9948 52.1639 48.3007 52.8656C48.3007 52.8656 48.2995 52.8668 48.2972 52.8691C48.2972 52.8691 48.2954 52.8656 48.2954 52.8638C46.7133 49.8457 44.3825 47.6968 41.2924 46.3358C45.7919 42.5632 45.4959 36.7351 42.323 33.3909C39.0884 29.9815 33.7397 29.7682 30.2179 32.8356C26.9234 35.7038 25.5915 42.0502 30.6372 46.3323C26.6415 48.5765 26.0724 49.1053 23.6641 52.8515C22.3621 51.4923 20.8188 50.4874 19.0853 49.7135C19.0835 49.7118 19.08 49.7118 19.0782 49.71C19.0782 49.7082 19.0817 49.7065 19.0835 49.7065C23.5954 45.918 23.2659 40.0829 20.1071 36.7633C16.8848 33.3751 11.5819 33.1476 8.05129 36.1639C4.85191 38.8947 3.23813 45.2816 8.43183 49.7171C8.30674 49.784 8.18694 49.851 8.06362 49.9092C4.01155 51.8484 1.4517 55.0022 0.34883 59.353C0.220221 59.8625 0.25898 60.4108 0 60.8903V61.3116V62.156C0 62.156 0 62.156 0 62.1578V70.877C0.0863267 71.5399 0.461584 71.9154 1.12401 72.0018H70.9993C71.6388 71.6175 71.9982 71.0974 71.9912 70.3059C71.9683 67.5875 72.0405 64.8673 71.9648 62.1507V62.149ZM35.9947 33.4685C39.2082 33.472 41.8966 36.1657 41.8931 39.3759C41.8896 42.5879 39.1976 45.2781 35.9877 45.2746C32.776 45.271 30.0875 42.5773 30.091 39.3689C30.0945 36.1551 32.7865 33.465 35.9947 33.4685ZM13.7876 36.8444C17.0028 36.8515 19.6878 39.5469 19.679 42.7554C19.6702 45.9709 16.9764 48.6576 13.7682 48.6487C10.5548 48.6417 7.86806 45.9462 7.87687 42.7378C7.88568 39.5223 10.5794 36.8356 13.7876 36.8444ZM22.3974 57.1106C22.1754 57.8546 22.2247 58.6902 22.2212 59.4852C22.2036 62.5315 22.2036 65.5778 22.2247 68.6241C22.2282 69.0842 22.1067 69.2023 21.6504 69.1988C18.5814 69.1776 15.5124 69.1882 12.4416 69.1882C9.37085 69.1882 6.39699 69.1776 3.37555 69.1988C2.91749 69.2023 2.79417 69.0842 2.80121 68.6241C2.82588 66.5862 2.79769 64.5465 2.81531 62.5068C2.85407 57.9586 5.51786 53.9568 9.58226 52.3067C13.7841 50.6003 18.3594 51.5452 21.6257 54.7801C22.2846 55.4341 22.7039 56.0793 22.3974 57.1106ZM46.9653 68.7633C46.967 69.0983 46.8789 69.2093 46.5371 69.1952C45.8818 69.1688 45.2246 69.1688 44.5692 69.1952C44.2098 69.2093 44.1499 69.0613 44.1535 68.7439C44.1676 67.5029 44.1658 66.26 44.157 65.019C44.1499 63.9736 43.6179 63.3618 42.7493 63.3706C41.8931 63.3795 41.3611 64.0018 41.3505 65.0419C41.3382 66.2371 41.3241 67.4323 41.3593 68.6258C41.3716 69.093 41.2325 69.2023 40.7797 69.1988C38.2269 69.1758 35.6741 69.1882 33.1195 69.1882C30.5649 69.1882 28.1073 69.1776 25.602 69.197C25.1669 69.2005 25.0101 69.1194 25.0136 68.6364C25.0383 65.4262 24.9907 62.216 25.0347 59.0057C25.1211 52.6523 30.3201 47.7973 36.6519 48.1128C42.0693 48.3825 46.7063 52.9379 46.9106 58.3605C47.0428 61.8228 46.9459 65.2957 46.9653 68.7633ZM58.1754 36.8444C61.3748 36.8162 64.0791 39.4923 64.1073 42.7166C64.1337 45.9163 61.4593 48.6205 58.2353 48.6487C55.0359 48.6769 52.3334 46.0009 52.3052 42.7766C52.277 39.5769 54.9531 36.8726 58.1754 36.8444ZM69.1777 68.8321C69.1917 69.3363 68.85 69.1829 68.6104 69.1829C65.5643 69.1899 62.5199 69.1882 59.4738 69.1882C56.4277 69.1882 53.3816 69.1776 50.3373 69.1988C49.8845 69.2005 49.7559 69.0912 49.7594 68.6276C49.7806 65.6271 49.77 62.6267 49.77 59.628C49.77 58.595 49.7365 57.5654 49.5075 56.5518C49.4124 56.1234 49.4634 55.7743 49.7929 55.4077C52.9465 51.9083 56.8417 50.6197 61.3325 51.9647C65.7246 53.2799 68.3619 56.3896 69.0297 60.9696C69.4084 63.5699 69.1019 66.2107 69.1777 68.8321Z" fill="#FAB107"/>
<path d="M25.0858 15.8766C24.7899 16.7915 25.114 17.5637 25.7994 18.216C26.8 19.1679 27.7672 20.1569 28.782 21.0948C29.1679 21.4526 29.2841 21.784 29.1784 22.3129C28.8719 23.8484 28.6376 25.398 28.4068 26.7536C28.3715 28.5765 29.9289 29.5884 31.4264 28.8638C32.7707 28.2133 34.0885 27.5064 35.3939 26.7801C35.8414 26.5315 36.1762 26.5544 36.6113 26.7959C37.8763 27.5011 39.1677 28.1551 40.452 28.825C41.2465 29.2411 42.0358 29.2323 42.7634 28.6893C43.4928 28.1428 43.6936 27.3724 43.5457 26.4998C43.2972 25.0489 43.0453 23.5963 42.774 22.149C42.7018 21.7647 42.7846 21.4985 43.0717 21.2252C44.1605 20.1957 45.2299 19.145 46.2993 18.0943C46.9388 17.4667 47.1749 16.7034 46.8895 15.8519C46.6111 15.0234 45.9804 14.5809 45.1172 14.4557C43.6373 14.2389 42.1591 13.9921 40.674 13.8052C40.2723 13.7541 40.0662 13.6042 39.8953 13.2481C39.2751 11.9418 38.6109 10.6549 37.982 9.35214C37.5715 8.50242 36.9602 7.95593 35.9789 7.96122C34.9958 7.9665 34.3985 8.5271 33.9898 9.37505C33.3626 10.6796 32.7002 11.9665 32.0765 13.2728C31.9197 13.6025 31.7312 13.7505 31.3524 13.7981C29.8919 13.985 28.4385 14.2371 26.978 14.4346C26.0601 14.5597 25.373 14.9899 25.0858 15.8766ZM32.4113 16.4795C33.338 16.3614 33.9387 15.8748 34.3316 15.048C34.8478 13.9603 35.3975 12.8885 35.9929 11.6897C36.6113 12.9414 37.2015 14.0696 37.7301 15.2243C38.0877 16.0088 38.6338 16.3896 39.5006 16.4777C40.7515 16.6029 41.9918 16.8338 43.1739 17.0119C42.3776 17.8563 41.5954 18.7483 40.7462 19.5716C40.0327 20.2644 39.7103 21.0225 39.9129 22.022C40.149 23.1855 40.3163 24.3632 40.5418 25.6924C39.3544 25.0683 38.2956 24.5324 37.2561 23.9595C36.4034 23.4905 35.5842 23.4888 34.7315 23.9577C33.6921 24.5306 32.6333 25.0665 31.4529 25.6871C31.6361 24.5712 31.7277 23.5557 31.9814 22.5809C32.3338 21.227 32.0131 20.1869 30.9437 19.2755C30.165 18.6108 29.5114 17.8034 28.7697 17.0278C29.9589 16.8462 31.1816 16.6364 32.4113 16.4795Z" fill="#FAB107"/>
<path d="M22.3691 6.61789C23.7768 8.02292 25.1791 9.43147 26.5886 10.8347C26.77 11.0145 26.9621 11.1926 27.177 11.3283C27.6298 11.6122 28.1072 11.6122 28.5706 11.3389C29.0286 11.0692 29.2664 10.6637 29.2612 10.0079C29.2841 9.60423 28.9758 9.25165 28.6428 8.9167C27.1911 7.45879 25.7359 6.00264 24.2771 4.55002C24.1133 4.38783 23.9318 4.22917 23.7327 4.11459C23.1549 3.78493 22.5911 3.86778 22.1172 4.3085C21.6697 4.72631 21.5305 5.25694 21.7772 5.84398C21.9058 6.15073 22.1366 6.38695 22.3691 6.61789Z" fill="#FAB107"/>
<path d="M43.5456 11.4077C44.1851 11.7003 44.7365 11.4888 45.2034 11.0251C46.7291 9.50727 48.2565 7.99119 49.7646 6.45747C50.4728 5.73821 50.5081 4.9502 49.9126 4.34553C49.3136 3.73557 48.4873 3.7814 47.7509 4.50948C46.2534 5.98854 44.7682 7.48171 43.2848 8.97488C42.9871 9.27457 42.7193 9.60423 42.7246 9.90216C42.7052 10.6919 42.9836 11.1485 43.5456 11.4077Z" fill="#FAB107"/>
<path d="M34.5923 4.37197C34.6399 5.24284 35.2125 5.80697 36.0035 5.79991C36.7646 5.79462 37.3513 5.24637 37.383 4.41781C37.4235 3.41649 37.4217 2.40987 37.3847 1.40855C37.3565 0.594097 36.7523 0.0141056 36.0158 2.47912e-06C35.253 -0.0158635 34.6434 0.583519 34.5941 1.43147C34.5659 1.91979 34.5888 2.41164 34.5888 2.90172C34.5888 3.3918 34.5659 3.88365 34.5923 4.37197Z" fill="#FAB107"/>
<path d="M42.7618 57.8969C41.9901 57.8969 41.3242 58.5791 41.3629 59.3283C41.3999 60.0705 42.0536 60.6787 42.7953 60.6628C43.5475 60.647 44.1606 60.0123 44.1518 59.2613C44.143 58.5068 43.5211 57.8969 42.7618 57.8969Z" fill="#FAB107"/>
</g>
<defs>
<clipPath id="clip0_21_131">
<rect width="72" height="72" fill="white"/>
</clipPath>
</defs>
</svg>
