<svg width="54" height="54" viewBox="0 0 54 54" fill="none" xmlns="http://www.w3.org/2000/svg">
<circle cx="27" cy="27" r="27" fill="white"/>
<path d="M40.3334 33.56V37.56C40.3349 37.9314 40.2589 38.2989 40.1101 38.6392C39.9613 38.9794 39.7431 39.2848 39.4695 39.5358C39.1959 39.7869 38.8728 39.978 38.5211 40.097C38.1693 40.2159 37.7966 40.2601 37.4267 40.2267C33.3239 39.7809 29.3827 38.3789 25.9201 36.1334C22.6985 34.0862 19.9672 31.3549 17.9201 28.1334C15.6667 24.655 14.2644 20.6947 13.8267 16.5734C13.7934 16.2047 13.8372 15.833 13.9554 15.4822C14.0736 15.1313 14.2635 14.8089 14.5131 14.5355C14.7627 14.2621 15.0665 14.0436 15.4051 13.8941C15.7438 13.7445 16.1099 13.667 16.4801 13.6667H20.4801C21.1271 13.6603 21.7545 13.8895 22.2451 14.3114C22.7357 14.7333 23.0562 15.3193 23.1467 15.96C23.3156 17.2401 23.6287 18.497 24.0801 19.7067C24.2595 20.1839 24.2983 20.7026 24.1919 21.2012C24.0856 21.6998 23.8386 22.1575 23.4801 22.52L21.7867 24.2134C23.6848 27.5514 26.4487 30.3153 29.7867 32.2134L31.4801 30.52C31.8426 30.1615 32.3003 29.9145 32.7989 29.8082C33.2975 29.7018 33.8162 29.7406 34.2934 29.92C35.5031 30.3714 36.76 30.6845 38.0401 30.8534C38.6878 30.9447 39.2793 31.271 39.7021 31.77C40.125 32.2691 40.3496 32.9061 40.3334 33.56Z" stroke="#FAB107" stroke-width="2" stroke-linecap="round" stroke-linejoin="round"/>
</svg>
