<svg width="80" height="80" viewBox="0 0 80 80" fill="none" xmlns="http://www.w3.org/2000/svg">
<circle cx="40" cy="40" r="40" fill="white"/>
<g clip-path="url(#clip0_8_195)">
<path d="M59.1172 27.0565C60.4337 25.7375 61.745 24.4133 63.0746 23.106C63.5477 22.6407 63.9322 22.1454 64 21.4611V20.4862C63.9388 19.8606 63.6337 19.3783 63.1801 18.9495C62.4502 18.2614 61.7385 17.5497 61.049 16.8198C60.6214 16.3649 60.1391 16.0613 59.5135 16H58.5385C57.7981 16.0404 57.3028 16.494 56.8127 16.984C53.4862 20.3207 50.148 23.6469 46.8241 26.9861C46.4904 27.3224 46.1424 27.4736 45.664 27.4736C39.0176 27.4619 32.3712 27.4658 25.7261 27.4645C25.0405 27.4645 25.0274 27.4501 25.0261 26.7476C25.0248 24.0509 25.0326 21.353 25.0235 18.6563C25.0183 17.2147 24.2271 16.2659 22.8389 16H19.9126C19.472 16.0991 19.0132 16.0704 18.5752 16.202C16.4506 16.8368 13.9922 19.261 14 22.3044C14.03 34.7177 14.0117 47.1311 14.0157 59.5457C14.0157 60.0475 14.0456 60.5506 14.1773 61.0407C14.8512 63.5692 17.4907 66.0117 20.722 66C34.2599 65.9492 47.7978 65.9791 61.3344 65.9791C61.4648 65.9791 61.5951 65.9778 61.7242 65.9778C62.4163 65.9791 62.9677 65.6937 63.4434 65.1958C63.7784 64.8465 63.8997 64.4242 64 63.9811V29.6528C63.8697 28.6479 63.274 28.0184 62.3563 27.686C61.8832 27.514 61.3761 27.4827 60.8717 27.4801C60.1834 27.4762 59.4939 27.4971 58.7835 27.4671C58.8669 27.2598 59.0064 27.1686 59.1172 27.0565ZM61.2523 29.3192C62.0631 29.3218 62.3381 29.5955 62.3381 30.3984C62.3394 41.3193 62.3394 52.2403 62.3381 63.1626C62.3381 63.9954 62.0618 64.2691 61.2262 64.2691C47.8487 64.2704 34.4711 64.2717 21.0935 64.2678C18.3354 64.2678 16.2277 62.5343 15.7871 59.9289C15.3361 57.2609 17.449 54.5381 20.155 54.3257C20.8185 54.2736 21.4872 54.2905 22.1533 54.284C23.8621 54.2683 24.8827 53.2517 24.8827 51.5508C24.8827 44.3184 24.8879 37.086 24.8723 29.8549C24.871 29.4065 24.9883 29.3061 25.425 29.3074C31.6334 29.3231 37.8432 29.3179 44.0516 29.3205C44.2211 29.3205 44.401 29.2709 44.6239 29.3987C44.0438 29.9722 43.4898 30.5326 42.9215 31.0787C42.2737 31.703 41.9074 32.4473 41.8409 33.3505C41.7614 34.4336 41.4994 35.5024 41.575 36.5985C41.5855 36.7536 41.5333 36.8005 41.3912 36.7966C41.2778 36.7927 41.1644 36.7966 41.0497 36.7966H27.7869C27.6083 36.7966 27.4258 36.7901 27.2525 36.8214C26.8106 36.9009 26.5251 37.2593 26.5486 37.679C26.572 38.1065 26.8797 38.4311 27.3385 38.4493C27.9381 38.4741 28.5403 38.461 29.1412 38.4623C29.6261 38.4632 29.8685 38.7134 29.8685 39.2131V59.8363C29.8685 60.1778 29.8594 60.5193 29.8711 60.8608C29.8881 61.4082 30.21 61.751 30.6923 61.7575C31.2007 61.764 31.5292 61.4199 31.5292 60.8373C31.5344 57.1644 31.5409 53.4915 31.52 49.8186C31.5174 49.3585 31.6517 49.266 32.0844 49.2699C34.7996 49.2895 37.5134 49.2882 40.2285 49.2686C40.6235 49.266 40.7043 49.3846 40.7004 49.7548C40.6822 51.6733 40.6809 53.5906 40.7017 55.5078C40.7056 55.8793 40.6053 55.964 40.2429 55.9601C38.521 55.9406 36.7978 55.9536 35.0746 55.9497C34.7383 55.9484 34.4242 55.9849 34.2026 56.2807C33.8676 56.7291 34.0683 57.3665 34.6027 57.5554C34.8087 57.6284 35.0199 57.6167 35.2297 57.6167C40.5453 57.618 45.8609 57.618 51.1764 57.6167C52.5529 57.6167 53.176 56.9976 53.176 55.6317C53.1773 51.6994 53.1773 47.7658 53.1773 43.8335C53.1773 43.7188 53.1812 43.6054 53.1747 43.492C53.1499 42.9916 52.8188 42.6396 52.3639 42.6292C51.8933 42.6188 51.5245 42.9824 51.5192 43.5064C51.5075 44.6925 51.4984 45.8785 51.5245 47.0646C51.5336 47.483 51.4554 47.629 50.9887 47.6277C44.6825 47.6081 38.375 47.6094 32.0688 47.6263C31.6126 47.6277 31.5187 47.4986 31.5213 47.0659C31.5422 44.3849 31.5461 41.7025 31.5187 39.0215C31.5135 38.5275 31.6647 38.4493 32.1144 38.4519C35.8528 38.4702 39.5911 38.4623 43.3295 38.4623C44.5848 38.4623 45.8218 38.2499 47.0614 38.0961C47.8096 38.0035 48.4144 37.5956 48.9462 37.0612C51.398 34.5939 53.8629 32.141 56.3121 29.6711C56.5741 29.4052 56.8387 29.3048 57.205 29.31C58.5541 29.3296 59.9032 29.3153 61.2523 29.3192ZM58.4068 25.1471C58.3495 25.0923 58.2778 25.0285 58.21 24.9607C57.1529 23.905 56.1023 22.8427 55.0347 21.7974C54.8301 21.5967 54.8405 21.4846 55.0438 21.3047C55.3854 21.0063 55.6852 20.4614 56.0358 20.4315C56.3982 20.4015 56.6914 20.9828 57.0121 21.2969C57.8124 22.0815 58.588 22.8909 59.3975 23.6651C59.6516 23.9089 59.636 24.0522 59.3857 24.2647C59.1276 24.485 58.9021 24.7443 58.6571 24.9815C58.5906 25.0454 58.5463 25.1484 58.4068 25.1471ZM53.4119 22.947C53.5214 22.8375 53.6009 22.6941 53.7886 22.8857C54.937 24.0548 56.0971 25.2148 57.2728 26.397C54.3178 29.3452 51.3707 32.2817 48.4313 35.2261C48.2488 35.4098 48.1524 35.4085 47.9725 35.2261C46.9245 34.1599 45.8752 33.0937 44.7972 32.0576C44.5079 31.7812 44.6851 31.6718 44.8611 31.4971C47.253 29.108 49.6436 26.7163 52.0341 24.3259C52.4943 23.8672 52.9531 23.4058 53.4119 22.947ZM46.686 36.4864C45.8283 36.5803 44.8963 36.6937 43.963 36.7797C43.3895 36.8318 43.1705 36.6181 43.2213 36.0511C43.306 35.1166 43.4208 34.1847 43.5159 33.3218C44.56 34.3632 45.6197 35.4216 46.686 36.4864ZM42.3467 49.6531C42.3454 49.3507 42.4288 49.2712 42.7286 49.2725C45.5363 49.2842 48.3453 49.2816 51.1543 49.2751C51.4098 49.2738 51.5232 49.3168 51.5219 49.6127C51.5088 51.6082 51.5062 53.6049 51.5232 55.6017C51.5271 55.9393 51.3863 55.9575 51.1217 55.9562C49.7257 55.9458 48.3296 55.951 46.9323 55.951C45.535 55.951 44.1729 55.9432 42.7925 55.9588C42.4757 55.9614 42.3415 55.9119 42.3441 55.5443C42.3636 53.5815 42.3597 51.6173 42.3467 49.6531ZM59.7051 17.9707C60.4819 18.728 61.2445 19.5022 62.0135 20.2685C62.2051 20.4575 62.3303 20.6752 62.3368 20.9515C62.329 21.19 62.2364 21.3934 62.0735 21.5615C61.7346 21.9095 61.3813 22.2445 61.049 22.599C60.8991 22.758 60.8065 22.7397 60.6618 22.5925C59.5891 21.5094 58.5124 20.4315 57.4292 19.3601C57.2741 19.2063 57.2298 19.1059 57.4123 18.9378C57.7577 18.6198 58.0731 18.2679 58.4172 17.9485C58.8448 17.551 59.2775 17.5536 59.7051 17.9707ZM20.9984 17.6605C21.4051 17.6605 21.8104 17.6579 22.2171 17.6605C22.9158 17.6683 23.2117 17.9707 23.2208 18.6823C23.2208 18.7957 23.2208 18.9104 23.2208 19.0238C23.2208 29.456 23.2156 39.8895 23.2247 50.3217C23.2273 52.7304 23.3068 52.6378 20.9515 52.6105C19.5346 52.5948 18.2246 52.9428 17.0358 53.7274C16.5783 54.0311 16.1768 54.4 15.7219 54.8509V33.9253C15.7219 30.2693 15.7206 26.6121 15.7219 22.9561C15.7232 19.7941 17.8479 17.6631 20.9984 17.6592V17.6605Z" fill="#262626"/>
</g>
<defs>
<clipPath id="clip0_8_195">
<rect width="50" height="50" fill="white" transform="translate(14 16)"/>
</clipPath>
</defs>
</svg>
