<svg width="72" height="79" viewBox="0 0 72 79" fill="none" xmlns="http://www.w3.org/2000/svg">
<g clip-path="url(#clip0_23_176)">
<path d="M71.9959 16.9759C71.9959 16.3346 71.9689 15.6913 71.809 15.0645C71.0885 12.2335 68.767 10.386 65.8018 10.2891C64.8445 10.2582 64.8507 10.2602 65.2058 9.4231C65.8537 7.89728 65.9679 6.32405 65.4467 4.757C64.5642 2.10332 62.6891 0.492967 59.9191 0.0867706C57.3048 -0.296745 55.0871 0.606372 53.5339 2.74251C51.9018 4.98793 50.388 7.32201 48.8577 9.64166C48.5358 10.1283 48.2036 10.3015 47.6139 10.3015C33.9942 10.2809 20.3745 10.3345 6.75696 10.254C3.11066 10.2334 -0.0186051 12.8747 8.3279e-05 16.98C0.0561483 29.937 0.0208481 42.8961 0.0208481 55.8552C0.0208481 56.7068 0.0831426 57.546 0.369697 58.3605C1.29789 61.0162 3.64431 62.6018 6.72789 62.6039C14.469 62.6121 22.2102 62.6142 29.9534 62.5915C30.5846 62.5894 30.676 62.7461 30.5306 63.3152C30.0302 65.2782 29.5152 67.2411 29.1207 69.2288C28.9525 70.0845 28.6244 70.3546 27.7647 70.2927C26.7099 70.2164 25.6405 70.2288 24.5836 70.3051C21.9278 70.4927 20.169 72.4557 20.1794 75.2166C20.1835 75.7877 20.0568 75.9588 19.4671 75.93C18.3811 75.8764 17.293 75.9156 16.205 75.9156C16.0243 75.9156 15.8416 75.9135 15.6609 75.9156C14.5915 75.9197 13.9769 76.2888 13.7838 77.0455C13.5699 77.8764 13.8918 78.4496 14.8781 79.0002H57.1408C58.125 78.4476 58.4489 77.8723 58.2351 77.0455C58.0399 76.2888 57.4252 75.9176 56.3558 75.9156C55.0871 75.9135 53.8163 75.8784 52.5497 75.93C51.9579 75.9547 51.8374 75.7836 51.8395 75.2166C51.8457 72.2412 49.8793 70.2969 46.8912 70.2742C45.8821 70.2659 44.8687 70.2309 43.8637 70.2886C43.2906 70.3237 43.1141 70.103 42.9999 69.5979C42.5265 67.5215 42.0468 65.4472 41.5069 63.3874C41.3325 62.7193 41.4654 62.5894 42.1465 62.5915C49.8606 62.6142 57.5768 62.6142 65.293 62.6039C69.3401 62.5977 71.9939 59.9564 71.9959 55.9295C72.0022 42.9456 71.9959 29.9618 71.9959 16.9759ZM68.9103 50.0757C68.8542 52.0551 68.8978 54.0346 68.8874 56.0161C68.877 58.2306 67.5959 59.5172 65.3657 59.5172C45.7886 59.5234 26.2136 59.5234 6.63652 59.5172C4.43961 59.5172 3.14596 58.2367 3.13142 56.0779C3.11689 53.9686 3.14388 51.8593 3.11689 49.752C3.11066 49.2386 3.26224 49.0922 3.77513 49.1066C4.98987 49.1417 6.20877 49.1314 7.42559 49.1128C8.45552 49.1004 9.11377 48.5004 9.12623 47.6055C9.13661 46.7251 8.47837 46.0715 7.46297 46.0426C6.22123 46.0076 4.97534 46.0137 3.7336 46.0426C3.26224 46.0529 3.11689 45.923 3.11689 45.4405C3.13142 35.8485 3.11896 26.2565 3.13557 16.6645C3.13973 14.6583 4.44791 13.3778 6.44964 13.3758C19.5523 13.3675 32.6549 13.3717 45.7575 13.3737C45.9028 13.3737 46.0482 13.3902 46.287 13.4067C46.1188 13.6644 46.0004 13.8541 45.8758 14.0377C43.7474 17.1965 41.6128 20.3492 39.499 23.5162C39.2477 23.8915 38.9985 24.0668 38.5189 24.0853C32.9622 24.2956 29.1768 27.9349 28.6742 33.4567C28.4064 36.397 28.884 39.2445 29.6419 42.0611C29.9575 43.2343 31.247 43.6652 32.1461 42.8466C33.7326 41.4013 35.6097 40.9909 37.6654 41.0631C39.3453 41.1208 41.0293 41.3373 42.6967 40.9806C46.3098 40.2033 48.7621 36.8795 48.5109 33.1268C48.4797 32.667 48.4797 32.1825 48.3323 31.7556C48.0395 30.9123 48.2617 30.3164 48.8369 29.6298C53.1539 24.4709 57.4294 19.277 61.6924 14.0727C62.1285 13.5387 62.5749 13.3119 63.2581 13.3593C64.0555 13.415 64.8611 13.3593 65.6647 13.3758C67.4775 13.415 68.7234 14.5841 68.875 16.3759C68.8937 16.582 68.8895 16.7882 68.8895 16.9924C68.8916 26.405 68.8812 35.8176 68.9103 45.2282C68.9123 45.9622 68.6652 46.0447 68.0319 46.0447C52.261 46.0282 36.4922 46.0323 20.7213 46.0344C20.387 46.0344 20.0444 46.0364 19.7184 46.0962C18.9168 46.2467 18.3998 46.9272 18.46 47.7004C18.5161 48.4509 19.0788 49.0221 19.8617 49.0984C20.1461 49.1272 20.4327 49.1169 20.7172 49.1169C36.4611 49.119 52.205 49.1252 67.9489 49.0984C68.7587 49.0963 68.931 49.3149 68.9103 50.0757ZM39.3993 70.2824C38.2614 70.2515 37.1255 70.2721 35.9876 70.2721C34.8497 70.2721 33.7658 70.2597 32.6549 70.2803C32.2354 70.2886 32.0298 70.2226 32.1503 69.7339C32.6985 67.5215 33.2342 65.307 33.7533 63.0884C33.8385 62.7255 33.9797 62.5894 34.3638 62.5977C35.4498 62.6224 36.5358 62.6307 37.6197 62.5956C38.0516 62.5812 38.1887 62.7523 38.2759 63.1297C38.7909 65.3235 39.3183 67.5133 39.8582 69.701C39.9641 70.134 39.8852 70.2968 39.3993 70.2824ZM58.9618 3.07448C60.4278 3.14871 61.5907 3.77759 62.2531 5.11783C62.9404 6.51168 62.7867 7.87666 61.8025 9.087C59.5723 11.8232 57.3152 14.5366 55.0684 17.2584C53.97 18.5883 52.8591 19.91 51.7814 21.2585C51.4969 21.6131 51.31 21.6811 50.9217 21.3842C49.6966 20.4399 48.4444 19.5285 47.1882 18.6275C46.8684 18.3965 46.7583 18.2481 47.0221 17.8604C49.9831 13.5016 52.9234 9.12412 55.872 4.75493C56.6009 3.67449 57.6412 3.14252 58.9618 3.07448ZM42.406 25.5328C42.1029 25.3184 42.0925 25.172 42.3001 24.875C43.1245 23.6936 43.9281 22.4977 44.7172 21.2914C44.931 20.9636 45.0785 20.8791 45.4273 21.1471C46.6171 22.0544 47.8319 22.9286 49.0362 23.8173C49.2418 23.9678 49.4619 24.0709 49.1837 24.3946C48.1953 25.5514 47.2401 26.7349 46.2683 27.904C46.1935 27.9947 46.098 28.0689 46.0087 28.1535C45.8634 28.0566 45.7554 27.9865 45.6537 27.9122C44.5718 27.1163 43.5003 26.3101 42.406 25.5328ZM45.4024 33.867C45.255 36.3702 43.6166 37.9207 41.0459 38.0651C40.2735 38.1084 39.4969 38.0713 38.7223 38.0713C36.5877 37.896 34.4822 37.9991 32.5033 38.9125C32.2022 39.0507 32.1087 39.0115 32.0568 38.6981C31.6312 36.1722 31.4048 33.6526 32.3932 31.1927C33.4273 28.6195 36.4071 26.8565 39.175 27.1431C39.4304 27.17 39.5986 27.3019 39.7855 27.438C41.1539 28.4463 42.4663 29.5453 43.9094 30.434C45.284 31.2773 45.4834 32.5124 45.4024 33.867ZM48.7497 75.6599C48.7102 76.0578 48.4133 75.9073 48.2243 75.9073C46.3617 75.9197 44.5012 75.9156 42.6386 75.9156H35.9648C31.9821 75.9156 27.9994 75.9011 24.0167 75.93C23.4207 75.9341 23.2235 75.8021 23.2567 75.1856C23.3211 73.9897 23.8672 73.365 25.0736 73.365C32.3662 73.3547 39.6609 73.3588 46.9556 73.3588C48.3012 73.3588 48.8826 74.2392 48.7497 75.6599Z" fill="#FAB107"/>
<path d="M13.8085 46.0486C12.9779 46.0404 12.2698 46.7125 12.2428 47.5332C12.2138 48.3971 12.9011 49.1023 13.7794 49.1085C14.6619 49.1167 15.3555 48.428 15.3409 47.5641C15.3285 46.7393 14.6349 46.0568 13.8085 46.0486Z" fill="#FAB107"/>
</g>
<defs>
<clipPath id="clip0_23_176">
<rect width="72" height="79" fill="white"/>
</clipPath>
</defs>
</svg>
