<svg width="86" height="12" viewBox="0 0 86 12" fill="none" xmlns="http://www.w3.org/2000/svg">
<path d="M6.22759 0L8.38727 3.13608L12.1504 4.1459L9.72203 7.09392L9.88807 10.8541L6.22759 9.54L2.5671 10.8541L2.73314 7.09392L0.3048 4.1459L4.0679 3.13608L6.22759 0Z" fill="#FAB107"/>
<path d="M24.6138 0L26.7735 3.13608L30.5366 4.1459L28.1083 7.09392L28.2743 10.8541L24.6138 9.54L20.9533 10.8541L21.1194 7.09392L18.691 4.1459L22.4541 3.13608L24.6138 0Z" fill="#FAB107"/>
<path d="M43 0L45.1597 3.13608L48.9228 4.1459L46.4945 7.09392L46.6605 10.8541L43 9.54L39.3396 10.8541L39.5056 7.09392L37.0773 4.1459L40.8404 3.13608L43 0Z" fill="#FAB107"/>
<path d="M61.3863 0L63.546 3.13608L67.3091 4.1459L64.8807 7.09392L65.0468 10.8541L61.3863 9.54L57.7258 10.8541L57.8918 7.09392L55.4635 4.1459L59.2266 3.13608L61.3863 0Z" fill="#FAB107"/>
<path d="M79.7725 0L81.9322 3.13608L85.6953 4.1459L83.267 7.09392L83.433 10.8541L79.7725 9.54L76.112 10.8541L76.2781 7.09392L73.8497 4.1459L77.6128 3.13608L79.7725 0Z" fill="#D9D9D9"/>
</svg>
