<svg width="98" height="98" viewBox="0 0 98 98" fill="none" xmlns="http://www.w3.org/2000/svg">
<circle cx="49" cy="49" r="48.5" stroke="#FAB107"/>
<g clip-path="url(#clip0_23_198)">
<path d="M72.0118 54.7164C71.4933 54.6147 71.0809 54.8291 70.7877 55.2749C70.6017 55.5595 70.6053 55.8818 70.6053 56.2064C70.6077 60.5855 70.6077 64.9646 70.6077 69.3448C70.6065 70.681 70.2596 71.0383 68.958 71.0383C57.203 71.0395 45.448 71.0395 33.6929 71.0383C32.3425 71.0383 32.0028 70.6955 32.0028 69.3267V26.7049C32.0028 25.0501 31.9956 23.3954 32.0063 21.7407C32.0111 20.9097 32.4855 20.4264 33.3056 20.4251C42.1022 20.4203 50.8988 20.4251 59.6954 20.4118C60.0983 20.4106 60.1352 20.562 60.1292 20.8976C60.1102 21.9066 60.0935 22.9169 60.134 23.9248C60.1543 24.4154 60.0434 24.5547 59.5333 24.5535C52.5639 24.5329 45.5946 24.5389 38.6252 24.5402C37.6562 24.5402 37.2044 24.9593 37.1997 25.909C37.1877 28.3911 37.1866 30.8732 37.1997 33.3552C37.2044 34.2771 37.6574 34.7095 38.5788 34.7095C47.038 34.712 55.4961 34.712 63.9554 34.7095C64.8291 34.7083 65.2797 34.2662 65.3095 33.3807C65.3297 32.7568 65.3345 32.1293 65.3059 31.5055C65.2904 31.1566 65.3977 31.067 65.7338 31.0706C67.2225 31.0888 68.7125 31.0912 70.2012 31.0694C70.5576 31.0646 70.6184 31.1917 70.6137 31.5152C70.5982 32.8477 70.6077 34.179 70.6077 35.5115C70.6077 38.9614 70.6053 42.4126 70.6089 45.8638C70.6101 46.673 71.0356 47.2011 71.7126 47.2605C72.46 47.3259 72.9892 46.7275 72.9892 45.7972C72.9916 40.6101 72.9833 35.4243 72.9999 30.2384C73.0011 29.6255 72.8104 29.1663 72.3861 28.7387C69.1201 25.4378 65.8649 22.1247 62.6121 18.8104C62.3189 18.5124 62.0161 18.2314 61.6704 18H32.5987C30.7596 18.3622 29.7953 19.3168 29.4901 21.072C29.4413 21.3518 29.4365 21.6341 29.4353 21.9163C29.4329 22.522 29.4246 23.1277 29.4377 23.7334C29.446 24.1658 29.2744 24.3597 28.8405 24.3524C28.2457 24.3427 27.6498 24.3475 27.0538 24.3524C24.5662 24.3706 23.0035 25.9562 23.0035 28.494C22.9988 44.3375 22.9999 60.1797 23.0023 76.0231C23.0035 78.2387 23.975 79.4973 26.0454 80H63.5776C63.6217 79.9673 63.661 79.9164 63.7099 79.9043C65.4597 79.4767 66.536 78.12 66.5539 76.3029C66.5622 75.4962 66.5741 74.6882 66.5479 73.8814C66.5372 73.5313 66.6468 73.4417 66.9782 73.4526C67.6719 73.478 68.368 73.4611 69.0629 73.4611C71.5219 73.4586 72.9892 71.9735 72.9892 69.4793C72.9916 65.0796 72.9904 60.68 72.9892 56.2815C72.9892 56.0998 73.0047 55.9145 72.9737 55.7376C72.8772 55.1852 72.5494 54.823 72.0118 54.7164ZM62.5203 22.3137C64.5967 24.4214 66.6731 26.5304 68.7554 28.6455C67.3072 28.6455 65.8268 28.6854 64.3499 28.6309C63.4226 28.5958 62.5799 27.7769 62.5382 26.8381C62.4726 25.3178 62.5203 23.794 62.5203 22.3137ZM62.3689 30.4492C62.8242 30.7048 62.9697 30.9701 62.9434 31.4728C62.9005 32.288 62.9315 32.2892 62.1127 32.2892H51.2111C47.5375 32.2892 43.8651 32.2808 40.1915 32.3001C39.723 32.3026 39.5478 32.2287 39.5633 31.6957C39.6062 30.2651 39.5883 28.8308 39.5705 27.3978C39.5669 27.0683 39.6348 26.9532 39.9865 26.9532C46.5791 26.9641 53.1718 26.9653 59.7645 26.9508C60.1436 26.9496 60.1686 27.1518 60.2186 27.4135C60.4737 28.763 61.202 29.7926 62.3689 30.4492ZM62.829 77.5761C50.8571 77.5785 38.8851 77.5785 26.9143 77.5761C25.9894 77.5749 25.5698 77.0891 25.5698 76.0606C25.5686 68.1298 25.5686 60.2003 25.5686 52.2707V28.6031C25.5686 27.3239 25.931 26.9617 27.2075 26.9617C27.9024 26.9605 28.5985 26.9726 29.2923 26.9556C29.5557 26.9483 29.6534 27.0319 29.6224 27.296C29.6057 27.4353 29.62 27.5782 29.62 27.72V69.3654C29.62 72.0256 31.0409 73.4611 33.6715 73.4611C43.6374 73.4611 53.6045 73.4647 63.5704 73.4489C64.0543 73.4477 64.2236 73.5434 64.1855 74.0619C64.1354 74.7645 64.1783 75.4731 64.1723 76.1794C64.164 77.1036 63.7206 77.5749 62.829 77.5761Z" fill="#FAB107"/>
<path d="M64.1796 43.9195C64.0426 43.9074 63.9019 43.9147 63.7636 43.9147H38.7624C38.5837 43.9147 38.4025 43.9026 38.2273 43.928C37.5991 44.0177 37.1724 44.5591 37.2081 45.2024C37.2487 45.9195 37.7576 46.335 38.6182 46.335C42.8246 46.3374 47.031 46.3362 51.2374 46.3362H63.6194C63.797 46.3362 63.977 46.3447 64.1546 46.3314C64.834 46.2793 65.3096 45.7681 65.3013 45.1067C65.2917 44.4719 64.8281 43.9777 64.1796 43.9195Z" fill="#FAB107"/>
<path d="M64.2833 49.7413C64.1081 49.7159 63.9269 49.7268 63.7493 49.7268H38.7481C38.5896 49.7268 38.4287 49.7183 38.2725 49.7365C37.586 49.8164 37.139 50.3943 37.2165 51.0896C37.2916 51.7716 37.7874 52.1471 38.6325 52.1471C42.8389 52.1495 47.0453 52.1483 51.2517 52.1483H63.6933C63.8912 52.1483 64.0926 52.1617 64.2869 52.1314C64.8888 52.0405 65.3167 51.5136 65.3012 50.9043C65.2857 50.3192 64.8638 49.8286 64.2833 49.7413Z" fill="#FAB107"/>
<path d="M64.2773 55.5535C64.0818 55.5268 63.8816 55.5402 63.6825 55.5402C59.5357 55.539 55.3889 55.539 51.2421 55.539H38.8005C38.6229 55.539 38.4418 55.5293 38.2654 55.5499C37.6503 55.6213 37.2153 56.1107 37.2057 56.7285C37.1962 57.3718 37.6384 57.8805 38.2821 57.952C38.4394 57.969 38.5991 57.9605 38.7576 57.9605H63.7588C63.9376 57.9605 64.1188 57.9714 64.294 57.9435C64.8948 57.8478 65.3191 57.3197 65.3012 56.7103C65.2833 56.1253 64.8578 55.6359 64.2773 55.5535Z" fill="#FAB107"/>
<path d="M64.2498 61.3632C64.0531 61.339 63.8529 61.3523 63.655 61.3523C59.5273 61.3511 55.4007 61.3511 51.273 61.3511C47.1453 61.3511 42.9794 61.3511 38.8326 61.3523C38.6538 61.3523 38.4738 61.3426 38.2974 61.3596C37.6514 61.4225 37.202 61.9265 37.2056 62.5685C37.2092 63.2117 37.6597 63.7035 38.3105 63.7665C38.4476 63.7799 38.5883 63.7726 38.7265 63.7726C47.0797 63.7738 55.4341 63.7738 63.7873 63.7726C63.9458 63.7726 64.1067 63.7823 64.2629 63.7605C64.8684 63.6769 65.3035 63.1645 65.3011 62.5552C65.2975 61.9459 64.8577 61.4383 64.2498 61.3632Z" fill="#FAB107"/>
<path d="M64.1319 38.105C64.0127 38.0977 63.8935 38.1013 63.7743 38.1013C57.0434 38.1013 50.3136 38.1013 43.5827 38.1026C43.4241 38.1026 43.2632 38.0929 43.1071 38.111C42.5063 38.1813 42.0403 38.6925 42.0272 39.2873C42.0129 39.9014 42.4908 40.4453 43.1166 40.5144C43.293 40.5338 43.4742 40.5229 43.6518 40.5229C46.9881 40.5241 50.3232 40.5241 53.6582 40.5241H62.4143C62.99 40.5229 63.5669 40.541 64.1415 40.5156C64.8244 40.4853 65.3036 39.9681 65.3012 39.3067C65.2988 38.6465 64.8185 38.151 64.1319 38.105Z" fill="#FAB107"/>
<path d="M70.6113 50.8849C70.5815 51.5523 71.1179 52.1326 71.7758 52.1447C72.4338 52.158 72.9904 51.5996 72.9869 50.9297C72.9833 50.284 72.4564 49.7425 71.8211 49.7292C71.1858 49.7171 70.6387 50.2392 70.6113 50.8849Z" fill="#FAB107"/>
<path d="M38.3427 40.5205C39.0018 40.5423 39.5585 39.9959 39.5644 39.3212C39.5692 38.6707 39.0579 38.128 38.4202 38.105C37.7574 38.0832 37.2091 38.6235 37.2044 39.303C37.1996 39.9608 37.7026 40.4987 38.3427 40.5205Z" fill="#FAB107"/>
</g>
<defs>
<clipPath id="clip0_23_198">
<rect width="50" height="62" fill="white" transform="translate(23 18)"/>
</clipPath>
</defs>
</svg>
